<?xml version="1.0" encoding="UTF-8"?>
<!DOCTYPE svg PUBLIC "-//W3C//DTD SVG 1.1//EN" "http://www.w3.org/Graphics/SVG/1.1/DTD/svg11.dtd">
<!-- Creator: CorelDRAW -->
<svg xmlns="http://www.w3.org/2000/svg" xml:space="preserve" width="500px" height="500px" version="1.1" style="shape-rendering:geometricPrecision; text-rendering:geometricPrecision; image-rendering:optimizeQuality; fill-rule:evenodd; clip-rule:evenodd"
viewBox="0 0 500 500"
 xmlns:xlink="http://www.w3.org/1999/xlink"
 xmlns:xodm="http://www.corel.com/coreldraw/odm/2003">
 <defs>
  <style type="text/css">
   <![CDATA[
    .fil0 {fill:#ED145B}
    .fil1 {fill:#FDFFF9}
    .fil2 {fill:#FDFFF9;fill-rule:nonzero}
   ]]>
  </style>
 </defs>
 <g id="Camada_x0020_1">
  <metadata id="CorelCorpID_0Corel-Layer"/>
  <g id="_1982235727168">
   <polygon class="fil0" points="222.51,428.34 250,402.2 277.49,428.34 304.99,454.48 454.48,454.48 454.48,304.99 428.34,277.49 402.2,250 428.34,222.51 454.48,195.01 454.48,45.52 304.99,45.52 277.49,71.66 250,97.8 222.51,71.66 195.01,45.52 45.52,45.52 45.52,195.01 71.66,222.51 97.8,250 71.66,277.49 45.52,304.99 45.52,454.48 195.01,454.48 "/>
   <g>
    <rect class="fil1" x="256.33" y="143.26" width="101.08" height="101.08"/>
    <polygon class="fil1" points="300.08,350.28 306.87,343.82 313.67,350.28 320.46,356.74 357.41,356.74 357.41,319.79 350.95,313 344.48,306.2 350.95,299.41 357.41,292.61 357.41,255.66 320.46,255.66 313.67,262.12 306.87,268.59 300.08,262.12 293.28,255.66 256.33,255.66 256.33,292.61 262.79,299.41 269.26,306.2 262.79,313 256.33,319.79 256.33,356.74 293.28,356.74 "/>
    <polygon class="fil1" points="213.98,162.48 204.37,152.87 194.76,143.26 142.59,143.26 142.59,244.34 172.75,244.34 172.52,234.49 172.28,225.12 181.89,234.73 191.5,244.34 243.67,244.34 243.67,143.26 213.5,143.26 213.74,153.11 "/>
    <polygon class="fil1" points="142.59,255.66 142.59,356.74 224.45,356.74 224.45,337.52 243.67,337.52 243.67,255.66 "/>
   </g>
   <g>
    <polygon class="fil2" points="94.04,18.66 88.21,0.42 94.54,0.42 99.26,15.82 96.08,15.82 101.08,0.42 106.73,0.42 111.4,15.82 108.35,15.82 113.28,0.42 119.11,0.42 113.28,18.66 106.68,18.66 102.88,6.05 104.65,6.05 100.64,18.66 "/>
    <path id="_1" class="fil2" d="M124.13 18.66l0 -18.24 14.83 0 0 4.64 -8.78 0 0 8.96 9.12 0 0 4.64 -15.17 0zm5.63 -7.04l0 -4.43 8.13 0 0 4.43 -8.13 0z"/>
    <path id="_2" class="fil2" d="M145.33 18.66l0 -18.24 9.75 0c2.52,0 4.38,0.45 5.58,1.34 1.19,0.9 1.79,2.04 1.79,3.43 0,0.92 -0.25,1.74 -0.77,2.46 -0.51,0.72 -1.25,1.29 -2.22,1.71 -0.98,0.41 -2.18,0.62 -3.6,0.62l0.52 -1.41c1.43,0 2.65,0.2 3.69,0.6 1.03,0.4 1.83,0.98 2.4,1.74 0.56,0.75 0.84,1.66 0.84,2.72 0,1.58 -0.65,2.81 -1.97,3.7 -1.31,0.89 -3.22,1.33 -5.74,1.33l-10.27 0zm6.05 -4.3l3.7 0c0.68,0 1.18,-0.12 1.52,-0.37 0.34,-0.24 0.51,-0.6 0.51,-1.06 0,-0.47 -0.17,-0.83 -0.51,-1.07 -0.34,-0.25 -0.84,-0.37 -1.52,-0.37l-4.12 0 0 -4.06 3.28 0c0.7,0 1.21,-0.12 1.53,-0.35 0.32,-0.24 0.48,-0.57 0.48,-1.01 0,-0.45 -0.16,-0.79 -0.48,-1.01 -0.32,-0.23 -0.83,-0.34 -1.53,-0.34l-2.86 0 0 9.64z"/>
    <path id="_3" class="fil2" d="M191.78 19l-11.04 -9.49c-0.59,-0.48 -1.08,-0.97 -1.46,-1.47 -0.38,-0.5 -0.67,-0.99 -0.86,-1.5 -0.19,-0.5 -0.29,-1.01 -0.29,-1.51 0,-0.97 0.27,-1.83 0.82,-2.57 0.55,-0.73 1.31,-1.31 2.29,-1.73 0.99,-0.42 2.14,-0.62 3.46,-0.62 1.21,0 2.27,0.18 3.18,0.55 0.9,0.38 1.6,0.91 2.11,1.61 0.5,0.69 0.75,1.51 0.75,2.45 0,0.83 -0.21,1.59 -0.64,2.27 -0.42,0.67 -1.07,1.29 -1.95,1.84 -0.88,0.56 -1.99,1.09 -3.32,1.59 -0.7,0.27 -1.26,0.53 -1.7,0.81 -0.43,0.28 -0.74,0.57 -0.93,0.88 -0.2,0.3 -0.29,0.64 -0.29,1.03 0,0.27 0.09,0.53 0.27,0.78 0.19,0.24 0.44,0.43 0.78,0.57 0.34,0.14 0.76,0.21 1.24,0.21 0.94,0 1.82,-0.25 2.65,-0.74 0.82,-0.5 1.53,-1.22 2.13,-2.15 0.6,-0.94 1.02,-2.06 1.24,-3.37l4.72 1.41c-0.4,1.79 -1.13,3.38 -2.18,4.77 -1.05,1.39 -2.34,2.48 -3.88,3.27 -1.54,0.79 -3.24,1.19 -5.12,1.19 -1.46,0 -2.76,-0.23 -3.91,-0.69 -1.15,-0.46 -2.05,-1.1 -2.71,-1.89 -0.66,-0.8 -0.99,-1.71 -0.99,-2.71 0,-1.01 0.22,-1.9 0.66,-2.67 0.45,-0.78 1.13,-1.47 2.06,-2.09 0.93,-0.62 2.11,-1.19 3.53,-1.73 0.87,-0.33 1.55,-0.64 2.05,-0.91 0.49,-0.28 0.85,-0.55 1.05,-0.8 0.21,-0.25 0.32,-0.5 0.32,-0.74 0,-0.28 -0.09,-0.51 -0.28,-0.68 -0.18,-0.17 -0.45,-0.26 -0.82,-0.26 -0.4,0 -0.7,0.1 -0.92,0.3 -0.22,0.2 -0.33,0.45 -0.33,0.74 0,0.19 0.05,0.38 0.15,0.58 0.09,0.19 0.28,0.42 0.56,0.69 0.27,0.27 0.66,0.62 1.17,1.05l9.59 8.16 -3.16 3.57z"/>
    <path id="_4" class="fil2" d="M206.71 18.66l7.97 -18.24 6.05 0 7.97 18.24 -6.36 0 -5.89 -15.32 2.4 0 -5.89 15.32 -6.25 0zm4.74 -3.18l1.56 -4.43 8.39 0 1.57 4.43 -11.52 0z"/>
    <path id="_5" class="fil2" d="M233.35 18.66l0 -18.24 8.79 0c1.7,0 3.17,0.28 4.41,0.83 1.24,0.56 2.21,1.35 2.88,2.39 0.68,1.03 1.02,2.25 1.02,3.66 0,1.4 -0.34,2.62 -1.02,3.65 -0.67,1.02 -1.64,1.82 -2.88,2.38 -1.24,0.56 -2.71,0.85 -4.41,0.85l-5.37 0 2.73 -2.63 0 7.11 -6.15 0zm6.15 -6.44l-2.73 -2.79 4.98 0c0.85,0 1.48,-0.19 1.88,-0.57 0.41,-0.38 0.62,-0.9 0.62,-1.56 0,-0.66 -0.21,-1.18 -0.62,-1.57 -0.4,-0.38 -1.03,-0.57 -1.88,-0.57l-4.98 0 2.73 -2.79 0 9.85z"/>
    <path id="_6" class="fil2" d="M256.12 18.66l0 -18.24 8.78 0c1.7,0 3.18,0.28 4.42,0.83 1.24,0.56 2.2,1.35 2.88,2.39 0.67,1.03 1.01,2.25 1.01,3.66 0,1.4 -0.34,2.62 -1.01,3.65 -0.68,1.02 -1.64,1.82 -2.88,2.38 -1.24,0.56 -2.72,0.85 -4.42,0.85l-5.37 0 2.74 -2.63 0 7.11 -6.15 0zm6.15 -6.44l-2.74 -2.79 4.98 0c0.85,0 1.48,-0.19 1.89,-0.57 0.41,-0.38 0.61,-0.9 0.61,-1.56 0,-0.66 -0.2,-1.18 -0.61,-1.57 -0.41,-0.38 -1.04,-0.57 -1.89,-0.57l-4.98 0 2.74 -2.79 0 9.85z"/>
    <path id="_7" class="fil2" d="M293.76 19.08c-1.52,0 -3,-0.18 -4.43,-0.52 -1.42,-0.35 -2.59,-0.8 -3.51,-1.36l1.98 -4.48c0.86,0.5 1.83,0.91 2.9,1.21 1.07,0.3 2.11,0.46 3.12,0.46 0.59,0 1.05,-0.04 1.39,-0.12 0.34,-0.08 0.59,-0.19 0.74,-0.34 0.16,-0.15 0.24,-0.33 0.24,-0.54 0,-0.32 -0.19,-0.59 -0.55,-0.78 -0.36,-0.19 -0.85,-0.35 -1.45,-0.48 -0.6,-0.13 -1.25,-0.27 -1.96,-0.42 -0.72,-0.14 -1.43,-0.34 -2.15,-0.58 -0.72,-0.24 -1.38,-0.57 -1.98,-0.97 -0.6,-0.4 -1.09,-0.92 -1.45,-1.57 -0.37,-0.65 -0.55,-1.47 -0.55,-2.44 0,-1.13 0.32,-2.16 0.95,-3.09 0.64,-0.93 1.58,-1.67 2.84,-2.22 1.26,-0.56 2.83,-0.84 4.71,-0.84 1.23,0 2.45,0.13 3.65,0.39 1.19,0.26 2.27,0.66 3.23,1.2l-1.85 4.46c-0.91,-0.46 -1.78,-0.79 -2.62,-1.02 -0.84,-0.23 -1.66,-0.34 -2.46,-0.34 -0.6,0 -1.06,0.05 -1.41,0.16 -0.35,0.1 -0.6,0.24 -0.74,0.42 -0.15,0.17 -0.23,0.36 -0.23,0.57 0,0.31 0.19,0.56 0.55,0.74 0.37,0.18 0.85,0.34 1.45,0.46 0.6,0.12 1.26,0.25 1.98,0.39 0.72,0.14 1.44,0.33 2.15,0.57 0.71,0.24 1.37,0.57 1.97,0.97 0.59,0.39 1.08,0.92 1.44,1.56 0.37,0.64 0.55,1.44 0.55,2.4 0,1.11 -0.32,2.13 -0.95,3.06 -0.64,0.93 -1.58,1.67 -2.83,2.24 -1.25,0.56 -2.82,0.85 -4.72,0.85z"/>
    <polygon id="_8" class="fil2" points="311.45,18.66 311.45,5.19 306.1,5.19 306.1,0.42 322.94,0.42 322.94,5.19 317.6,5.19 317.6,18.66 "/>
    <path id="_9" class="fil2" d="M336.53 19.08c-2.8,0 -4.98,-0.76 -6.54,-2.27 -1.56,-1.51 -2.35,-3.63 -2.35,-6.36l0 -10.03 6.15 0 0 9.85c0,1.39 0.26,2.37 0.76,2.96 0.5,0.58 1.18,0.87 2.03,0.87 0.87,0 1.55,-0.29 2.05,-0.87 0.49,-0.59 0.74,-1.57 0.74,-2.96l0 -9.85 6.05 0 0 10.03c0,2.73 -0.79,4.85 -2.35,6.36 -1.56,1.51 -3.74,2.27 -6.54,2.27z"/>
    <path id="_10" class="fil2" d="M351.9 18.66l0 -18.24 8.98 0c2.04,0 3.83,0.37 5.37,1.11 1.55,0.73 2.76,1.78 3.63,3.14 0.86,1.35 1.3,2.98 1.3,4.87 0,1.87 -0.44,3.49 -1.3,4.86 -0.87,1.36 -2.08,2.41 -3.63,3.15 -1.54,0.74 -3.33,1.11 -5.37,1.11l-8.98 0zm6.14 -4.8l2.58 0c0.87,0 1.63,-0.16 2.28,-0.49 0.66,-0.33 1.16,-0.82 1.53,-1.47 0.36,-0.65 0.55,-1.44 0.55,-2.36 0,-0.94 -0.19,-1.73 -0.55,-2.37 -0.37,-0.65 -0.87,-1.13 -1.53,-1.46 -0.65,-0.33 -1.41,-0.5 -2.28,-0.5l-2.58 0 0 8.65z"/>
    <polygon id="_11" class="fil2" points="377.08,18.66 377.08,0.42 383.23,0.42 383.23,18.66 "/>
    <path id="_12" class="fil2" d="M399.43 19.08c-1.48,0 -2.84,-0.24 -4.1,-0.71 -1.26,-0.47 -2.35,-1.13 -3.27,-1.99 -0.92,-0.86 -1.64,-1.87 -2.15,-3.04 -0.52,-1.16 -0.77,-2.43 -0.77,-3.8 0,-1.39 0.26,-2.66 0.78,-3.81 0.52,-1.14 1.24,-2.15 2.15,-3.02 0.91,-0.87 2,-1.54 3.26,-2 1.26,-0.47 2.62,-0.71 4.1,-0.71 1.5,0 2.87,0.24 4.12,0.71 1.25,0.46 2.33,1.13 3.24,2 0.91,0.87 1.63,1.88 2.15,3.02 0.52,1.15 0.78,2.42 0.78,3.81 0,1.37 -0.25,2.64 -0.76,3.8 -0.52,1.17 -1.23,2.18 -2.15,3.04 -0.93,0.86 -2.01,1.52 -3.26,1.99 -1.25,0.47 -2.62,0.71 -4.12,0.71zm-0.02 -4.98c0.59,0 1.13,-0.11 1.62,-0.31 0.5,-0.21 0.93,-0.51 1.31,-0.9 0.37,-0.39 0.66,-0.87 0.87,-1.44 0.21,-0.56 0.31,-1.2 0.31,-1.91 0,-0.71 -0.1,-1.35 -0.31,-1.92 -0.21,-0.56 -0.5,-1.04 -0.87,-1.43 -0.38,-0.39 -0.81,-0.69 -1.29,-0.9 -0.49,-0.21 -1.03,-0.31 -1.62,-0.31 -0.57,0 -1.11,0.1 -1.6,0.31 -0.5,0.21 -0.93,0.51 -1.3,0.9 -0.38,0.39 -0.67,0.87 -0.88,1.43 -0.21,0.57 -0.31,1.21 -0.31,1.92 0,0.71 0.1,1.35 0.31,1.91 0.21,0.57 0.5,1.05 0.88,1.44 0.37,0.39 0.8,0.69 1.29,0.9 0.48,0.2 1.01,0.31 1.59,0.31z"/>
    <polygon class="fil2" points="479.78,89.11 498.03,83.28 498.03,89.61 482.62,94.33 482.62,91.15 498.03,96.15 498.03,101.8 482.62,106.47 482.62,103.42 498.03,108.35 498.03,114.18 479.78,108.35 479.78,101.75 492.4,97.95 492.4,99.72 479.78,95.71 "/>
    <path id="_1_72" class="fil2" d="M479.78 119.2l18.25 0 0 14.83 -4.64 0 0 -8.78 -8.97 0 0 9.12 -4.64 0 0 -15.17zm7.04 5.63l4.43 0 0 8.13 -4.43 0 0 -8.13z"/>
    <path id="_2_73" class="fil2" d="M479.78 140.4l18.25 0 0 9.75c0,2.52 -0.45,4.38 -1.35,5.58 -0.89,1.19 -2.03,1.79 -3.42,1.79 -0.92,0 -1.75,-0.25 -2.47,-0.77 -0.72,-0.51 -1.29,-1.25 -1.7,-2.22 -0.42,-0.98 -0.63,-2.18 -0.63,-3.6l1.41 0.52c0,1.43 -0.2,2.65 -0.6,3.69 -0.4,1.03 -0.98,1.83 -1.73,2.4 -0.76,0.56 -1.67,0.84 -2.73,0.84 -1.58,0 -2.81,-0.65 -3.7,-1.96 -0.88,-1.32 -1.33,-3.23 -1.33,-5.75l0 -10.27zm4.3 6.05l0 3.7c0,0.68 0.13,1.18 0.37,1.52 0.24,0.34 0.6,0.51 1.07,0.51 0.47,0 0.82,-0.17 1.06,-0.51 0.25,-0.34 0.37,-0.84 0.37,-1.52l0 -4.12 4.07 0 0 3.28c0,0.7 0.11,1.21 0.35,1.53 0.23,0.32 0.57,0.48 1,0.48 0.45,0 0.79,-0.16 1.02,-0.48 0.22,-0.32 0.34,-0.83 0.34,-1.53l0 -2.86 -9.65 0z"/>
    <path id="_3_74" class="fil2" d="M479.45 186.85l9.48 -11.04c0.49,-0.59 0.98,-1.08 1.47,-1.46 0.5,-0.38 1,-0.67 1.5,-0.86 0.51,-0.19 1.01,-0.29 1.51,-0.29 0.98,0 1.83,0.27 2.57,0.82 0.74,0.55 1.32,1.31 1.73,2.29 0.42,0.99 0.63,2.14 0.63,3.46 0,1.21 -0.19,2.27 -0.56,3.18 -0.38,0.9 -0.91,1.6 -1.6,2.11 -0.7,0.5 -1.52,0.75 -2.45,0.75 -0.84,0 -1.59,-0.21 -2.27,-0.64 -0.68,-0.42 -1.3,-1.07 -1.85,-1.95 -0.56,-0.88 -1.09,-1.99 -1.59,-3.32 -0.26,-0.7 -0.53,-1.26 -0.81,-1.7 -0.28,-0.43 -0.57,-0.74 -0.87,-0.93 -0.31,-0.2 -0.65,-0.29 -1.03,-0.29 -0.28,0 -0.54,0.09 -0.78,0.27 -0.25,0.19 -0.44,0.45 -0.58,0.78 -0.14,0.34 -0.2,0.76 -0.2,1.24 0,0.94 0.24,1.82 0.74,2.65 0.49,0.82 1.21,1.53 2.15,2.13 0.94,0.6 2.06,1.02 3.36,1.24l-1.41 4.72c-1.79,-0.4 -3.38,-1.13 -4.77,-2.18 -1.39,-1.05 -2.48,-2.34 -3.27,-3.88 -0.79,-1.54 -1.18,-3.24 -1.18,-5.12 0,-1.46 0.23,-2.76 0.69,-3.91 0.46,-1.15 1.09,-2.05 1.89,-2.71 0.8,-0.66 1.7,-0.99 2.71,-0.99 1,0 1.9,0.22 2.67,0.66 0.77,0.45 1.47,1.13 2.08,2.06 0.62,0.93 1.2,2.11 1.74,3.53 0.33,0.87 0.63,1.55 0.91,2.05 0.28,0.49 0.54,0.85 0.79,1.05 0.25,0.21 0.5,0.32 0.74,0.32 0.28,0 0.51,-0.09 0.68,-0.28 0.18,-0.18 0.26,-0.45 0.26,-0.82 0,-0.4 -0.1,-0.7 -0.3,-0.92 -0.2,-0.22 -0.44,-0.33 -0.74,-0.33 -0.19,0 -0.38,0.05 -0.57,0.15 -0.19,0.09 -0.42,0.28 -0.69,0.56 -0.27,0.27 -0.62,0.66 -1.06,1.17l-8.15 9.59 -3.57 -3.16z"/>
    <path id="_4_75" class="fil2" d="M479.78 201.78l18.25 7.97 0 6.05 -18.25 7.97 0 -6.36 15.33 -5.89 0 2.4 -15.33 -5.89 0 -6.25zm3.18 4.74l4.43 1.56 0 8.39 -4.43 1.57 0 -11.52z"/>
    <path id="_5_76" class="fil2" d="M479.78 228.42l18.25 0 0 8.79c0,1.7 -0.28,3.17 -0.84,4.41 -0.55,1.24 -1.35,2.21 -2.38,2.88 -1.04,0.68 -2.26,1.02 -3.66,1.02 -1.41,0 -2.63,-0.34 -3.65,-1.02 -1.03,-0.67 -1.82,-1.64 -2.39,-2.88 -0.56,-1.24 -0.84,-2.71 -0.84,-4.41l0 -5.37 2.63 2.73 -7.12 0 0 -6.15zm6.44 6.15l2.79 -2.73 0 4.98c0,0.85 0.19,1.48 0.57,1.88 0.38,0.41 0.91,0.62 1.57,0.62 0.66,0 1.18,-0.21 1.56,-0.62 0.38,-0.4 0.57,-1.03 0.57,-1.88l0 -4.98 2.79 2.73 -9.85 0z"/>
    <path id="_6_77" class="fil2" d="M479.78 251.19l18.25 0 0 8.78c0,1.7 -0.28,3.18 -0.84,4.42 -0.55,1.24 -1.35,2.2 -2.38,2.88 -1.04,0.67 -2.26,1.01 -3.66,1.01 -1.41,0 -2.63,-0.34 -3.65,-1.01 -1.03,-0.68 -1.82,-1.64 -2.39,-2.88 -0.56,-1.24 -0.84,-2.72 -0.84,-4.42l0 -5.37 2.63 2.74 -7.12 0 0 -6.15zm6.44 6.15l2.79 -2.74 0 4.98c0,0.85 0.19,1.48 0.57,1.89 0.38,0.41 0.91,0.61 1.57,0.61 0.66,0 1.18,-0.2 1.56,-0.61 0.38,-0.41 0.57,-1.04 0.57,-1.89l0 -4.98 2.79 2.74 -9.85 0z"/>
    <path id="_7_78" class="fil2" d="M479.37 288.83c0,-1.52 0.17,-3 0.52,-4.43 0.35,-1.42 0.8,-2.59 1.35,-3.51l4.49 1.98c-0.51,0.86 -0.91,1.83 -1.22,2.9 -0.3,1.07 -0.45,2.11 -0.45,3.12 0,0.59 0.04,1.05 0.12,1.39 0.07,0.34 0.19,0.59 0.33,0.74 0.15,0.16 0.33,0.24 0.54,0.24 0.33,0 0.59,-0.19 0.78,-0.55 0.19,-0.36 0.35,-0.85 0.48,-1.45 0.13,-0.6 0.27,-1.25 0.42,-1.96 0.15,-0.72 0.34,-1.43 0.58,-2.15 0.25,-0.72 0.57,-1.38 0.97,-1.98 0.4,-0.6 0.92,-1.09 1.58,-1.45 0.65,-0.37 1.46,-0.55 2.43,-0.55 1.13,0 2.16,0.32 3.09,0.95 0.93,0.64 1.67,1.58 2.23,2.84 0.55,1.26 0.83,2.83 0.83,4.71 0,1.23 -0.13,2.45 -0.39,3.65 -0.26,1.19 -0.66,2.27 -1.2,3.23l-4.45 -1.85c0.45,-0.91 0.79,-1.78 1.01,-2.62 0.23,-0.84 0.34,-1.66 0.34,-2.46 0,-0.6 -0.05,-1.06 -0.16,-1.41 -0.1,-0.35 -0.24,-0.6 -0.41,-0.74 -0.18,-0.15 -0.37,-0.23 -0.57,-0.23 -0.32,0 -0.56,0.19 -0.75,0.55 -0.18,0.37 -0.33,0.85 -0.45,1.45 -0.13,0.6 -0.26,1.26 -0.39,1.98 -0.14,0.72 -0.33,1.44 -0.58,2.15 -0.24,0.71 -0.56,1.37 -0.96,1.97 -0.4,0.59 -0.92,1.08 -1.57,1.44 -0.64,0.37 -1.44,0.55 -2.39,0.55 -1.11,0 -2.14,-0.32 -3.07,-0.95 -0.92,-0.64 -1.67,-1.58 -2.24,-2.83 -0.56,-1.25 -0.84,-2.82 -0.84,-4.72z"/>
    <polygon id="_8_79" class="fil2" points="479.78,306.52 493.26,306.52 493.26,301.17 498.03,301.17 498.03,318.01 493.26,318.01 493.26,312.67 479.78,312.67 "/>
    <path id="_9_80" class="fil2" d="M479.37 331.6c0,-2.8 0.75,-4.98 2.26,-6.54 1.52,-1.56 3.64,-2.35 6.36,-2.35l10.04 0 0 6.15 -9.86 0c-1.38,0 -2.37,0.26 -2.95,0.76 -0.59,0.5 -0.88,1.18 -0.88,2.03 0,0.87 0.29,1.55 0.88,2.05 0.58,0.49 1.57,0.74 2.95,0.74l9.86 0 0 6.05 -10.04 0c-2.72,0 -4.84,-0.78 -6.36,-2.35 -1.51,-1.56 -2.26,-3.74 -2.26,-6.54z"/>
    <path id="_10_81" class="fil2" d="M479.78 346.97l18.25 0 0 8.98c0,2.04 -0.37,3.83 -1.11,5.37 -0.74,1.55 -1.79,2.76 -3.14,3.63 -1.36,0.86 -2.98,1.3 -4.88,1.3 -1.87,0 -3.49,-0.44 -4.86,-1.3 -1.36,-0.87 -2.41,-2.08 -3.15,-3.63 -0.74,-1.54 -1.11,-3.33 -1.11,-5.37l0 -8.98zm4.8 6.14l0 2.58c0,0.87 0.16,1.63 0.49,2.28 0.33,0.66 0.83,1.16 1.48,1.53 0.65,0.36 1.43,0.55 2.35,0.55 0.94,0 1.73,-0.19 2.38,-0.55 0.64,-0.37 1.13,-0.87 1.46,-1.53 0.33,-0.65 0.49,-1.41 0.49,-2.28l0 -2.58 -8.65 0z"/>
    <polygon id="_11_82" class="fil2" points="479.78,372.15 498.03,372.15 498.03,378.3 479.78,378.3 "/>
    <path id="_12_83" class="fil2" d="M479.37 394.5c0,-1.48 0.23,-2.84 0.7,-4.1 0.47,-1.26 1.13,-2.35 1.99,-3.27 0.86,-0.92 1.88,-1.64 3.04,-2.15 1.16,-0.52 2.43,-0.77 3.8,-0.77 1.39,0 2.66,0.26 3.81,0.78 1.15,0.52 2.15,1.24 3.02,2.15 0.87,0.91 1.54,2 2.01,3.26 0.47,1.26 0.7,2.62 0.7,4.1 0,1.5 -0.23,2.87 -0.7,4.12 -0.47,1.25 -1.14,2.33 -2.01,3.24 -0.87,0.91 -1.87,1.63 -3.02,2.15 -1.15,0.52 -2.42,0.78 -3.81,0.78 -1.37,0 -2.64,-0.25 -3.8,-0.76 -1.16,-0.52 -2.18,-1.23 -3.04,-2.15 -0.86,-0.93 -1.52,-2.01 -1.99,-3.26 -0.47,-1.25 -0.7,-2.62 -0.7,-4.12zm4.97 -0.02c0,0.59 0.11,1.13 0.32,1.62 0.21,0.5 0.51,0.93 0.9,1.31 0.39,0.37 0.86,0.66 1.43,0.87 0.56,0.21 1.2,0.31 1.91,0.31 0.72,0 1.36,-0.1 1.92,-0.31 0.57,-0.21 1.04,-0.5 1.43,-0.87 0.39,-0.38 0.69,-0.81 0.9,-1.29 0.21,-0.49 0.31,-1.03 0.31,-1.62 0,-0.57 -0.1,-1.11 -0.31,-1.6 -0.21,-0.5 -0.51,-0.93 -0.9,-1.3 -0.39,-0.38 -0.86,-0.67 -1.43,-0.88 -0.56,-0.21 -1.2,-0.31 -1.92,-0.31 -0.71,0 -1.35,0.1 -1.91,0.31 -0.57,0.21 -1.04,0.5 -1.43,0.88 -0.39,0.37 -0.69,0.8 -0.9,1.29 -0.21,0.48 -0.32,1.01 -0.32,1.59z"/>
    <polygon class="fil2" points="403.89,481.34 409.72,499.58 403.39,499.58 398.68,484.18 401.85,484.18 396.85,499.58 391.2,499.58 386.53,484.18 389.58,484.18 384.66,499.58 378.82,499.58 384.66,481.34 391.25,481.34 395.05,493.95 393.28,493.95 397.29,481.34 "/>
    <path id="_1_84" class="fil2" d="M373.8 481.34l0 18.24 -14.83 0 0 -4.64 8.79 0 0 -8.96 -9.13 0 0 -4.64 15.17 0zm-5.63 7.04l0 4.43 -8.13 0 0 -4.43 8.13 0z"/>
    <path id="_2_85" class="fil2" d="M352.6 481.34l0 18.24 -9.75 0c-2.52,0 -4.37,-0.45 -5.57,-1.34 -1.2,-0.9 -1.8,-2.04 -1.8,-3.43 0,-0.92 0.26,-1.74 0.77,-2.46 0.51,-0.72 1.25,-1.29 2.23,-1.71 0.97,-0.41 2.17,-0.62 3.59,-0.62l-0.52 1.41c-1.42,0 -2.65,-0.2 -3.69,-0.6 -1.03,-0.4 -1.83,-0.98 -2.39,-1.74 -0.57,-0.75 -0.85,-1.66 -0.85,-2.72 0,-1.58 0.65,-2.81 1.97,-3.7 1.31,-0.89 3.22,-1.33 5.74,-1.33l10.27 0zm-6.05 4.3l-3.7 0c-0.67,0 -1.18,0.12 -1.52,0.37 -0.34,0.24 -0.51,0.6 -0.51,1.06 0,0.47 0.17,0.83 0.51,1.07 0.34,0.25 0.85,0.37 1.52,0.37l4.12 0 0 4.06 -3.28 0c-0.7,0 -1.21,0.12 -1.53,0.35 -0.32,0.24 -0.48,0.57 -0.48,1.01 0,0.45 0.16,0.79 0.48,1.01 0.32,0.23 0.83,0.34 1.53,0.34l2.86 0 0 -9.64z"/>
    <path id="_3_86" class="fil2" d="M306.15 481l11.05 9.49c0.59,0.48 1.07,0.97 1.46,1.47 0.38,0.5 0.66,0.99 0.86,1.5 0.19,0.5 0.28,1.01 0.28,1.51 0,0.97 -0.27,1.83 -0.82,2.57 -0.55,0.73 -1.31,1.31 -2.29,1.73 -0.98,0.42 -2.13,0.62 -3.45,0.62 -1.22,0 -2.28,-0.18 -3.18,-0.55 -0.91,-0.38 -1.61,-0.91 -2.11,-1.61 -0.51,-0.69 -0.76,-1.51 -0.76,-2.45 0,-0.83 0.21,-1.59 0.64,-2.27 0.42,-0.67 1.08,-1.29 1.95,-1.84 0.88,-0.56 1.99,-1.09 3.32,-1.59 0.7,-0.27 1.26,-0.53 1.7,-0.81 0.43,-0.28 0.75,-0.57 0.94,-0.88 0.19,-0.3 0.28,-0.64 0.28,-1.03 0,-0.27 -0.09,-0.53 -0.27,-0.78 -0.18,-0.24 -0.44,-0.43 -0.78,-0.57 -0.34,-0.14 -0.75,-0.21 -1.24,-0.21 -0.94,0 -1.82,0.25 -2.64,0.74 -0.83,0.5 -1.54,1.22 -2.14,2.15 -0.6,0.94 -1.01,2.06 -1.24,3.37l-4.72 -1.41c0.4,-1.79 1.13,-3.38 2.18,-4.77 1.05,-1.39 2.35,-2.48 3.88,-3.27 1.54,-0.79 3.25,-1.19 5.12,-1.19 1.46,0 2.77,0.23 3.91,0.69 1.15,0.46 2.05,1.1 2.71,1.89 0.66,0.8 0.99,1.71 0.99,2.71 0,1.01 -0.22,1.9 -0.66,2.67 -0.44,0.78 -1.13,1.47 -2.06,2.09 -0.93,0.62 -2.11,1.19 -3.53,1.73 -0.87,0.33 -1.55,0.64 -2.05,0.91 -0.49,0.28 -0.84,0.55 -1.05,0.8 -0.21,0.25 -0.32,0.5 -0.32,0.74 0,0.28 0.1,0.51 0.28,0.68 0.18,0.17 0.45,0.26 0.82,0.26 0.4,0 0.71,-0.1 0.92,-0.3 0.22,-0.2 0.33,-0.45 0.33,-0.74 0,-0.19 -0.05,-0.38 -0.14,-0.58 -0.1,-0.19 -0.29,-0.42 -0.56,-0.69 -0.28,-0.27 -0.67,-0.62 -1.18,-1.05l-9.59 -8.16 3.16 -3.57z"/>
    <path id="_4_87" class="fil2" d="M291.23 481.34l-7.98 18.24 -6.04 0 -7.98 -18.24 6.36 0 5.89 15.32 -2.4 0 5.89 -15.32 6.26 0zm-4.75 3.18l-1.56 4.43 -8.39 0 -1.56 -4.43 11.51 0z"/>
    <path id="_5_88" class="fil2" d="M264.58 481.34l0 18.24 -8.78 0c-1.71,0 -3.18,-0.28 -4.42,-0.83 -1.24,-0.56 -2.2,-1.35 -2.88,-2.39 -0.68,-1.03 -1.02,-2.25 -1.02,-3.66 0,-1.4 0.34,-2.62 1.02,-3.65 0.68,-1.02 1.64,-1.82 2.88,-2.38 1.24,-0.56 2.71,-0.85 4.42,-0.85l5.36 0 -2.73 2.63 0 -7.11 6.15 0zm-6.15 6.44l2.73 2.79 -4.97 0c-0.85,0 -1.48,0.19 -1.89,0.57 -0.41,0.38 -0.61,0.9 -0.61,1.56 0,0.66 0.2,1.18 0.61,1.57 0.41,0.38 1.04,0.57 1.89,0.57l4.97 0 -2.73 2.79 0 -9.85z"/>
    <path id="_6_89" class="fil2" d="M241.81 481.34l0 18.24 -8.78 0c-1.7,0 -3.17,-0.28 -4.42,-0.83 -1.24,-0.56 -2.2,-1.35 -2.87,-2.39 -0.68,-1.03 -1.02,-2.25 -1.02,-3.66 0,-1.4 0.34,-2.62 1.02,-3.65 0.67,-1.02 1.63,-1.82 2.87,-2.38 1.25,-0.56 2.72,-0.85 4.42,-0.85l5.37 0 -2.74 2.63 0 -7.11 6.15 0zm-6.15 6.44l2.74 2.79 -4.98 0c-0.85,0 -1.48,0.19 -1.89,0.57 -0.41,0.38 -0.61,0.9 -0.61,1.56 0,0.66 0.2,1.18 0.61,1.57 0.41,0.38 1.04,0.57 1.89,0.57l4.98 0 -2.74 2.79 0 -9.85z"/>
    <path id="_7_90" class="fil2" d="M204.17 480.92c1.53,0 3,0.18 4.43,0.52 1.42,0.35 2.6,0.8 3.52,1.36l-1.98 4.48c-0.87,-0.5 -1.84,-0.91 -2.91,-1.21 -1.07,-0.3 -2.11,-0.46 -3.11,-0.46 -0.59,0 -1.06,0.04 -1.4,0.12 -0.34,0.08 -0.58,0.19 -0.74,0.34 -0.16,0.15 -0.24,0.33 -0.24,0.54 0,0.32 0.19,0.59 0.55,0.78 0.37,0.19 0.85,0.35 1.45,0.48 0.6,0.13 1.25,0.27 1.97,0.42 0.71,0.14 1.42,0.34 2.15,0.58 0.72,0.24 1.38,0.57 1.98,0.97 0.6,0.4 1.08,0.92 1.44,1.57 0.37,0.65 0.55,1.47 0.55,2.44 0,1.13 -0.32,2.16 -0.95,3.09 -0.64,0.93 -1.58,1.67 -2.84,2.22 -1.26,0.56 -2.83,0.84 -4.71,0.84 -1.23,0 -2.45,-0.13 -3.64,-0.39 -1.2,-0.26 -2.28,-0.66 -3.24,-1.2l1.86 -4.46c0.9,0.46 1.77,0.79 2.61,1.02 0.85,0.23 1.67,0.34 2.47,0.34 0.59,0 1.06,-0.05 1.4,-0.16 0.35,-0.1 0.6,-0.24 0.75,-0.42 0.14,-0.17 0.22,-0.36 0.22,-0.57 0,-0.31 -0.18,-0.56 -0.55,-0.74 -0.36,-0.18 -0.85,-0.34 -1.45,-0.46 -0.59,-0.12 -1.25,-0.25 -1.98,-0.39 -0.72,-0.14 -1.43,-0.33 -2.15,-0.57 -0.71,-0.24 -1.36,-0.57 -1.96,-0.97 -0.6,-0.39 -1.08,-0.92 -1.45,-1.56 -0.36,-0.64 -0.55,-1.44 -0.55,-2.4 0,-1.11 0.32,-2.13 0.95,-3.06 0.64,-0.93 1.58,-1.67 2.83,-2.24 1.25,-0.56 2.83,-0.85 4.72,-0.85z"/>
    <polygon id="_8_91" class="fil2" points="186.48,481.34 186.48,494.81 191.83,494.81 191.83,499.58 174.99,499.58 174.99,494.81 180.33,494.81 180.33,481.34 "/>
    <path id="_9_92" class="fil2" d="M161.4 480.92c2.8,0 4.98,0.76 6.54,2.27 1.57,1.51 2.35,3.63 2.35,6.36l0 10.03 -6.15 0 0 -9.85c0,-1.39 -0.25,-2.37 -0.76,-2.96 -0.5,-0.58 -1.18,-0.87 -2.03,-0.87 -0.87,0 -1.55,0.29 -2.05,0.87 -0.49,0.59 -0.74,1.57 -0.74,2.96l0 9.85 -6.04 0 0 -10.03c0,-2.73 0.78,-4.85 2.34,-6.36 1.56,-1.51 3.74,-2.27 6.54,-2.27z"/>
    <path id="_10_93" class="fil2" d="M146.04 481.34l0 18.24 -8.99 0c-2.04,0 -3.82,-0.37 -5.37,-1.11 -1.55,-0.73 -2.76,-1.78 -3.62,-3.14 -0.87,-1.35 -1.31,-2.98 -1.31,-4.87 0,-1.87 0.44,-3.49 1.31,-4.86 0.86,-1.36 2.07,-2.41 3.62,-3.15 1.55,-0.74 3.33,-1.11 5.37,-1.11l8.99 0zm-6.15 4.8l-2.58 0c-0.87,0 -1.63,0.16 -2.28,0.49 -0.65,0.33 -1.16,0.82 -1.53,1.47 -0.36,0.65 -0.54,1.44 -0.54,2.36 0,0.94 0.18,1.73 0.54,2.37 0.37,0.65 0.88,1.13 1.53,1.46 0.65,0.33 1.41,0.5 2.28,0.5l2.58 0 0 -8.65z"/>
    <polygon id="_11_94" class="fil2" points="120.85,481.34 120.85,499.58 114.7,499.58 114.7,481.34 "/>
    <path id="_12_95" class="fil2" d="M98.5 480.92c1.48,0 2.85,0.24 4.11,0.71 1.26,0.47 2.35,1.13 3.27,1.99 0.92,0.86 1.63,1.87 2.15,3.04 0.51,1.16 0.76,2.43 0.76,3.8 0,1.39 -0.26,2.66 -0.78,3.81 -0.52,1.14 -1.24,2.15 -2.15,3.02 -0.91,0.87 -1.99,1.54 -3.25,2 -1.26,0.47 -2.63,0.71 -4.11,0.71 -1.49,0 -2.87,-0.24 -4.12,-0.71 -1.25,-0.46 -2.33,-1.13 -3.24,-2 -0.91,-0.87 -1.63,-1.88 -2.15,-3.02 -0.52,-1.15 -0.78,-2.42 -0.78,-3.81 0,-1.37 0.25,-2.64 0.77,-3.8 0.51,-1.17 1.23,-2.18 2.15,-3.04 0.92,-0.86 2,-1.52 3.25,-1.99 1.25,-0.47 2.63,-0.71 4.12,-0.71zm0.03 4.98c-0.59,0 -1.14,0.11 -1.63,0.31 -0.5,0.21 -0.93,0.51 -1.3,0.9 -0.38,0.39 -0.67,0.87 -0.88,1.44 -0.21,0.56 -0.31,1.2 -0.31,1.91 0,0.71 0.1,1.35 0.31,1.92 0.21,0.56 0.5,1.04 0.88,1.43 0.37,0.39 0.8,0.69 1.28,0.9 0.49,0.21 1.03,0.31 1.62,0.31 0.57,0 1.11,-0.1 1.6,-0.31 0.5,-0.21 0.93,-0.51 1.31,-0.9 0.37,-0.39 0.66,-0.87 0.87,-1.43 0.21,-0.57 0.31,-1.21 0.31,-1.92 0,-0.71 -0.1,-1.35 -0.31,-1.91 -0.21,-0.57 -0.5,-1.05 -0.87,-1.44 -0.38,-0.39 -0.81,-0.69 -1.29,-0.9 -0.49,-0.2 -1.02,-0.31 -1.59,-0.31z"/>
    <polygon class="fil2" points="20.22,398.96 1.97,404.79 1.97,398.46 17.38,393.75 17.38,396.92 1.97,391.92 1.97,386.27 17.38,381.6 17.38,384.65 1.97,379.73 1.97,373.89 20.22,379.73 20.22,386.32 7.6,390.12 7.6,388.35 20.22,392.36 "/>
    <path id="_1_96" class="fil2" d="M20.22 368.87l-18.25 0 0 -14.83 4.64 0 0 8.79 8.97 0 0 -9.13 4.64 0 0 15.17zm-7.04 -5.63l-4.43 0 0 -8.13 4.43 0 0 8.13z"/>
    <path id="_2_97" class="fil2" d="M20.22 347.67l-18.25 0 0 -9.75c0,-2.52 0.45,-4.37 1.35,-5.57 0.89,-1.2 2.03,-1.8 3.42,-1.8 0.92,0 1.75,0.26 2.47,0.77 0.72,0.51 1.29,1.25 1.7,2.23 0.42,0.97 0.63,2.17 0.63,3.59l-1.41 -0.52c0,-1.42 0.2,-2.65 0.6,-3.69 0.4,-1.03 0.98,-1.83 1.73,-2.39 0.76,-0.57 1.67,-0.85 2.73,-0.85 1.58,0 2.81,0.65 3.7,1.97 0.88,1.31 1.33,3.22 1.33,5.74l0 10.27zm-4.3 -6.05l0 -3.7c0,-0.67 -0.13,-1.18 -0.37,-1.52 -0.24,-0.34 -0.6,-0.51 -1.07,-0.51 -0.47,0 -0.82,0.17 -1.06,0.51 -0.25,0.34 -0.37,0.85 -0.37,1.52l0 4.12 -4.07 0 0 -3.28c0,-0.7 -0.11,-1.21 -0.35,-1.53 -0.23,-0.32 -0.57,-0.48 -1,-0.48 -0.45,0 -0.79,0.16 -1.02,0.48 -0.22,0.32 -0.34,0.83 -0.34,1.53l0 2.86 9.65 0z"/>
    <path id="_3_98" class="fil2" d="M20.55 301.22l-9.48 11.05c-0.49,0.59 -0.98,1.07 -1.47,1.46 -0.5,0.38 -1,0.66 -1.5,0.86 -0.51,0.19 -1.01,0.28 -1.51,0.28 -0.98,0 -1.83,-0.27 -2.57,-0.82 -0.74,-0.55 -1.32,-1.31 -1.73,-2.29 -0.42,-0.98 -0.63,-2.13 -0.63,-3.45 0,-1.22 0.19,-2.28 0.56,-3.18 0.38,-0.91 0.91,-1.61 1.6,-2.11 0.7,-0.51 1.52,-0.76 2.45,-0.76 0.84,0 1.59,0.21 2.27,0.64 0.68,0.42 1.3,1.08 1.85,1.95 0.56,0.88 1.09,1.99 1.59,3.32 0.26,0.7 0.53,1.26 0.81,1.7 0.28,0.43 0.57,0.75 0.87,0.94 0.31,0.19 0.65,0.28 1.03,0.28 0.28,0 0.54,-0.09 0.78,-0.27 0.25,-0.18 0.44,-0.44 0.58,-0.78 0.14,-0.34 0.2,-0.75 0.2,-1.24 0,-0.94 -0.24,-1.82 -0.74,-2.64 -0.49,-0.83 -1.21,-1.54 -2.15,-2.14 -0.94,-0.6 -2.06,-1.01 -3.36,-1.24l1.41 -4.72c1.79,0.4 3.38,1.13 4.77,2.18 1.39,1.05 2.48,2.35 3.27,3.88 0.79,1.54 1.18,3.25 1.18,5.12 0,1.46 -0.23,2.77 -0.69,3.91 -0.46,1.15 -1.09,2.05 -1.89,2.71 -0.8,0.66 -1.7,0.99 -2.71,0.99 -1,0 -1.9,-0.22 -2.67,-0.66 -0.77,-0.44 -1.47,-1.13 -2.08,-2.06 -0.62,-0.93 -1.2,-2.11 -1.74,-3.53 -0.33,-0.87 -0.63,-1.55 -0.91,-2.05 -0.28,-0.49 -0.54,-0.84 -0.79,-1.05 -0.25,-0.21 -0.5,-0.32 -0.74,-0.32 -0.28,0 -0.51,0.1 -0.68,0.28 -0.18,0.18 -0.26,0.45 -0.26,0.82 0,0.4 0.1,0.71 0.3,0.92 0.2,0.22 0.44,0.33 0.74,0.33 0.19,0 0.38,-0.05 0.57,-0.14 0.19,-0.1 0.42,-0.29 0.69,-0.56 0.27,-0.28 0.62,-0.67 1.06,-1.18l8.15 -9.59 3.57 3.16z"/>
    <path id="_4_99" class="fil2" d="M20.22 286.3l-18.25 -7.98 0 -6.04 18.25 -7.98 0 6.36 -15.33 5.89 0 -2.4 15.33 5.89 0 6.26zm-3.18 -4.75l-4.43 -1.56 0 -8.39 4.43 -1.56 0 11.51z"/>
    <path id="_5_100" class="fil2" d="M20.22 259.65l-18.25 0 0 -8.78c0,-1.71 0.28,-3.18 0.84,-4.42 0.55,-1.24 1.35,-2.2 2.38,-2.88 1.04,-0.68 2.26,-1.02 3.66,-1.02 1.41,0 2.63,0.34 3.65,1.02 1.03,0.68 1.82,1.64 2.39,2.88 0.56,1.24 0.84,2.71 0.84,4.42l0 5.36 -2.63 -2.73 7.12 0 0 6.15zm-6.44 -6.15l-2.79 2.73 0 -4.97c0,-0.85 -0.19,-1.48 -0.57,-1.89 -0.38,-0.41 -0.91,-0.61 -1.57,-0.61 -0.66,0 -1.18,0.2 -1.56,0.61 -0.38,0.41 -0.57,1.04 -0.57,1.89l0 4.97 -2.79 -2.73 9.85 0z"/>
    <path id="_6_101" class="fil2" d="M20.22 236.88l-18.25 0 0 -8.78c0,-1.7 0.28,-3.17 0.84,-4.42 0.55,-1.24 1.35,-2.2 2.38,-2.87 1.04,-0.68 2.26,-1.02 3.66,-1.02 1.41,0 2.63,0.34 3.65,1.02 1.03,0.67 1.82,1.63 2.39,2.87 0.56,1.25 0.84,2.72 0.84,4.42l0 5.37 -2.63 -2.74 7.12 0 0 6.15zm-6.44 -6.15l-2.79 2.74 0 -4.98c0,-0.85 -0.19,-1.48 -0.57,-1.89 -0.38,-0.41 -0.91,-0.61 -1.57,-0.61 -0.66,0 -1.18,0.2 -1.56,0.61 -0.38,0.41 -0.57,1.04 -0.57,1.89l0 4.98 -2.79 -2.74 9.85 0z"/>
    <path id="_7_102" class="fil2" d="M20.63 199.24c0,1.53 -0.17,3 -0.52,4.43 -0.35,1.42 -0.8,2.6 -1.35,3.52l-4.49 -1.98c0.51,-0.87 0.91,-1.84 1.22,-2.91 0.3,-1.07 0.45,-2.11 0.45,-3.11 0,-0.59 -0.04,-1.06 -0.12,-1.4 -0.07,-0.34 -0.19,-0.58 -0.33,-0.74 -0.15,-0.16 -0.33,-0.24 -0.54,-0.24 -0.33,0 -0.59,0.19 -0.78,0.55 -0.19,0.37 -0.35,0.85 -0.48,1.45 -0.13,0.6 -0.27,1.25 -0.42,1.97 -0.15,0.71 -0.34,1.42 -0.58,2.15 -0.25,0.72 -0.57,1.38 -0.97,1.98 -0.4,0.6 -0.92,1.08 -1.58,1.44 -0.65,0.37 -1.46,0.55 -2.43,0.55 -1.13,0 -2.16,-0.32 -3.09,-0.95 -0.93,-0.64 -1.67,-1.58 -2.23,-2.84 -0.55,-1.26 -0.83,-2.83 -0.83,-4.71 0,-1.23 0.13,-2.45 0.39,-3.64 0.26,-1.2 0.66,-2.28 1.2,-3.24l4.45 1.86c-0.45,0.9 -0.79,1.77 -1.01,2.61 -0.23,0.85 -0.34,1.67 -0.34,2.47 0,0.59 0.05,1.06 0.16,1.4 0.1,0.35 0.24,0.6 0.41,0.75 0.18,0.14 0.37,0.22 0.57,0.22 0.32,0 0.56,-0.18 0.75,-0.55 0.18,-0.36 0.33,-0.85 0.45,-1.45 0.13,-0.59 0.26,-1.25 0.39,-1.98 0.14,-0.72 0.33,-1.43 0.58,-2.15 0.24,-0.71 0.56,-1.36 0.96,-1.96 0.4,-0.6 0.92,-1.08 1.57,-1.45 0.64,-0.36 1.44,-0.55 2.39,-0.55 1.11,0 2.14,0.32 3.07,0.95 0.92,0.64 1.67,1.58 2.24,2.83 0.56,1.25 0.84,2.83 0.84,4.72z"/>
    <polygon id="_8_103" class="fil2" points="20.22,181.55 6.74,181.55 6.74,186.9 1.97,186.9 1.97,170.06 6.74,170.06 6.74,175.4 20.22,175.4 "/>
    <path id="_9_104" class="fil2" d="M20.63 156.47c0,2.8 -0.75,4.98 -2.26,6.54 -1.52,1.57 -3.64,2.35 -6.36,2.35l-10.04 0 0 -6.15 9.86 0c1.38,0 2.37,-0.25 2.95,-0.76 0.59,-0.5 0.88,-1.18 0.88,-2.03 0,-0.87 -0.29,-1.55 -0.88,-2.05 -0.58,-0.49 -1.57,-0.74 -2.95,-0.74l-9.86 0 0 -6.04 10.04 0c2.72,0 4.84,0.78 6.36,2.34 1.51,1.56 2.26,3.74 2.26,6.54z"/>
    <path id="_10_105" class="fil2" d="M20.22 141.11l-18.25 0 0 -8.99c0,-2.04 0.37,-3.82 1.11,-5.37 0.74,-1.55 1.79,-2.76 3.14,-3.62 1.36,-0.87 2.98,-1.31 4.88,-1.31 1.87,0 3.49,0.44 4.86,1.31 1.36,0.86 2.41,2.07 3.15,3.62 0.74,1.55 1.11,3.33 1.11,5.37l0 8.99zm-4.8 -6.15l0 -2.58c0,-0.87 -0.16,-1.63 -0.49,-2.28 -0.33,-0.65 -0.83,-1.16 -1.48,-1.53 -0.65,-0.36 -1.43,-0.54 -2.35,-0.54 -0.94,0 -1.73,0.18 -2.38,0.54 -0.64,0.37 -1.13,0.88 -1.46,1.53 -0.33,0.65 -0.49,1.41 -0.49,2.28l0 2.58 8.65 0z"/>
    <polygon id="_11_106" class="fil2" points="20.22,115.92 1.97,115.92 1.97,109.77 20.22,109.77 "/>
    <path id="_12_107" class="fil2" d="M20.63 93.57c0,1.48 -0.23,2.85 -0.7,4.11 -0.47,1.26 -1.13,2.35 -1.99,3.27 -0.86,0.92 -1.88,1.63 -3.04,2.15 -1.16,0.51 -2.43,0.76 -3.8,0.76 -1.39,0 -2.66,-0.26 -3.81,-0.78 -1.15,-0.52 -2.15,-1.24 -3.02,-2.15 -0.87,-0.91 -1.54,-1.99 -2.01,-3.25 -0.47,-1.26 -0.7,-2.63 -0.7,-4.11 0,-1.49 0.23,-2.87 0.7,-4.12 0.47,-1.25 1.14,-2.33 2.01,-3.24 0.87,-0.91 1.87,-1.63 3.02,-2.15 1.15,-0.52 2.42,-0.78 3.81,-0.78 1.37,0 2.64,0.25 3.8,0.77 1.16,0.51 2.18,1.23 3.04,2.15 0.86,0.92 1.52,2 1.99,3.25 0.47,1.25 0.7,2.63 0.7,4.12zm-4.97 0.03c0,-0.59 -0.11,-1.14 -0.32,-1.63 -0.21,-0.5 -0.51,-0.93 -0.9,-1.3 -0.39,-0.38 -0.86,-0.67 -1.43,-0.88 -0.56,-0.21 -1.2,-0.31 -1.91,-0.31 -0.72,0 -1.36,0.1 -1.92,0.31 -0.57,0.21 -1.04,0.5 -1.43,0.88 -0.39,0.37 -0.69,0.8 -0.9,1.29 -0.21,0.48 -0.31,1.02 -0.31,1.61 0,0.57 0.1,1.11 0.31,1.6 0.21,0.5 0.51,0.93 0.9,1.31 0.39,0.37 0.86,0.66 1.43,0.87 0.56,0.21 1.2,0.31 1.92,0.31 0.71,0 1.35,-0.1 1.91,-0.31 0.57,-0.21 1.04,-0.5 1.43,-0.87 0.39,-0.38 0.69,-0.81 0.9,-1.29 0.21,-0.49 0.32,-1.02 0.32,-1.59z"/>
   </g>
  </g>
 </g>
</svg>
