<?xml version="1.0" encoding="UTF-8"?>
<!DOCTYPE svg PUBLIC "-//W3C//DTD SVG 1.1//EN" "http://www.w3.org/Graphics/SVG/1.1/DTD/svg11.dtd">
<!-- Creator: CorelDRAW -->
<svg xmlns="http://www.w3.org/2000/svg" xml:space="preserve" width="500px" height="114px" version="1.1" style="shape-rendering:geometricPrecision; text-rendering:geometricPrecision; image-rendering:optimizeQuality; fill-rule:evenodd; clip-rule:evenodd"
viewBox="0 0 500 114.36"
 xmlns:xlink="http://www.w3.org/1999/xlink"
 xmlns:xodm="http://www.corel.com/coreldraw/odm/2003">
 <defs>
  <style type="text/css">
   <![CDATA[
    .fil0 {fill:#FDFFF9}
   ]]>
  </style>
 </defs>
 <g id="Camada_x0020_1">
  <metadata id="CorelCorpID_0Corel-Layer"/>
  <g id="_2829587356704">
   <rect class="fil0" x="128.55" y="0.82" width="114.36" height="114.36"/>
   <polygon class="fil0" points="435.13,107.87 442.82,100.56 450.51,107.87 458.2,115.18 500,115.18 500,73.38 492.69,65.69 485.38,58 492.69,50.31 500,42.62 500,0.82 458.2,0.82 450.51,8.13 442.82,15.44 435.13,8.13 427.44,0.82 385.64,0.82 385.64,42.62 392.95,50.31 400.26,58 392.95,65.69 385.64,73.38 385.64,115.18 427.44,115.18 "/>
   <polygon class="fil0" points="80.77,22.57 69.89,11.69 59.02,0.82 0,0.82 0,115.18 34.13,115.18 33.86,104.04 33.59,93.44 44.47,104.31 55.34,115.18 114.36,115.18 114.36,0.82 80.23,0.82 80.5,11.96 "/>
   <polygon class="fil0" points="257.09,0.82 257.09,115.18 349.71,115.18 349.71,93.44 371.45,93.44 371.45,0.82 "/>
  </g>
 </g>
</svg>
