<?xml version="1.0" encoding="UTF-8"?>
<!DOCTYPE svg PUBLIC "-//W3C//DTD SVG 1.1//EN" "http://www.w3.org/Graphics/SVG/1.1/DTD/svg11.dtd">
<!-- Creator: CorelDRAW -->
<svg xmlns="http://www.w3.org/2000/svg" xml:space="preserve" width="500px" height="114px" version="1.1" style="shape-rendering:geometricPrecision; text-rendering:geometricPrecision; image-rendering:optimizeQuality; fill-rule:evenodd; clip-rule:evenodd"
viewBox="0 0 500 114.36"
 xmlns:xlink="http://www.w3.org/1999/xlink"
 xmlns:xodm="http://www.corel.com/coreldraw/odm/2003">
 <defs>
  <style type="text/css">
   <![CDATA[
    .fil0 {fill:#ED145B}
   ]]>
  </style>
 </defs>
 <g id="Camada_x0020_1">
  <metadata id="CorelCorpID_0Corel-Layer"/>
  <g id="_2829592598272">
   <rect class="fil0" x="128.55" width="114.36" height="114.36"/>
   <polygon class="fil0" points="435.13,107.05 442.82,99.74 450.51,107.05 458.2,114.36 500,114.36 500,72.56 492.69,64.87 485.38,57.18 492.69,49.49 500,41.8 500,0 458.2,0 450.51,7.31 442.82,14.62 435.13,7.31 427.44,0 385.64,0 385.64,41.8 392.95,49.49 400.26,57.18 392.95,64.87 385.64,72.56 385.64,114.36 427.44,114.36 "/>
   <polygon class="fil0" points="80.77,21.74 69.89,10.87 59.02,0 0,0 0,114.36 34.13,114.36 33.86,103.22 33.59,92.61 44.47,103.49 55.34,114.36 114.36,114.36 114.36,0 80.23,0 80.5,11.14 "/>
   <polygon class="fil0" points="257.09,0 257.09,114.36 349.71,114.36 349.71,92.61 371.45,92.61 371.45,0 "/>
  </g>
 </g>
</svg>
