<?xml version="1.0" encoding="UTF-8"?>
<!DOCTYPE svg PUBLIC "-//W3C//DTD SVG 1.1//EN" "http://www.w3.org/Graphics/SVG/1.1/DTD/svg11.dtd">
<!-- Creator: CorelDRAW -->
<svg xmlns="http://www.w3.org/2000/svg" xml:space="preserve" width="500px" height="500px" version="1.1" style="shape-rendering:geometricPrecision; text-rendering:geometricPrecision; image-rendering:optimizeQuality; fill-rule:evenodd; clip-rule:evenodd"
viewBox="0 0 500 500"
 xmlns:xlink="http://www.w3.org/1999/xlink"
 xmlns:xodm="http://www.corel.com/coreldraw/odm/2003">
 <defs>
  <style type="text/css">
   <![CDATA[
    .fil0 {fill:#FDFFF9;fill-rule:nonzero}
   ]]>
  </style>
 </defs>
 <g id="Camada_x0020_1">
  <metadata id="CorelCorpID_0Corel-Layer"/>
  <polygon class="fil0" points="479.78,89.94 498.03,84.1 498.03,90.43 482.62,95.15 482.62,91.97 498.03,96.97 498.03,102.63 482.62,107.29 482.62,104.24 498.03,109.17 498.03,115 479.78,109.17 479.78,102.57 492.4,98.77 492.4,100.54 479.78,96.53 "/>
  <path id="_1" class="fil0" d="M479.78 120.02l18.25 0 0 14.83 -4.64 0 0 -8.78 -8.97 0 0 9.12 -4.64 0 0 -15.17zm7.04 5.63l4.43 0 0 8.13 -4.43 0 0 -8.13z"/>
  <path id="_2" class="fil0" d="M479.78 141.22l18.25 0 0 9.75c0,2.52 -0.45,4.38 -1.35,5.58 -0.89,1.19 -2.03,1.79 -3.42,1.79 -0.92,0 -1.75,-0.25 -2.47,-0.77 -0.72,-0.51 -1.29,-1.25 -1.7,-2.22 -0.42,-0.98 -0.63,-2.17 -0.63,-3.6l1.41 0.52c0,1.43 -0.2,2.66 -0.6,3.69 -0.4,1.03 -0.98,1.83 -1.73,2.4 -0.76,0.56 -1.67,0.84 -2.73,0.84 -1.58,0 -2.81,-0.65 -3.7,-1.96 -0.88,-1.32 -1.33,-3.23 -1.33,-5.75l0 -10.27zm4.3 6.05l0 3.7c0,0.68 0.13,1.18 0.37,1.52 0.24,0.34 0.6,0.51 1.07,0.51 0.47,0 0.82,-0.17 1.06,-0.51 0.25,-0.34 0.37,-0.84 0.37,-1.52l0 -4.12 4.07 0 0 3.29c0,0.69 0.11,1.2 0.35,1.52 0.23,0.32 0.57,0.48 1,0.48 0.45,0 0.79,-0.16 1.02,-0.48 0.22,-0.32 0.34,-0.83 0.34,-1.52l0 -2.87 -9.65 0z"/>
  <path id="_3" class="fil0" d="M479.45 187.68l9.48 -11.05c0.49,-0.59 0.98,-1.08 1.47,-1.46 0.5,-0.38 1,-0.67 1.5,-0.86 0.51,-0.19 1.01,-0.29 1.51,-0.29 0.98,0 1.83,0.27 2.57,0.82 0.74,0.55 1.32,1.31 1.73,2.3 0.42,0.98 0.63,2.13 0.63,3.45 0,1.21 -0.19,2.27 -0.56,3.18 -0.38,0.9 -0.91,1.6 -1.6,2.11 -0.7,0.5 -1.52,0.75 -2.45,0.75 -0.84,0 -1.59,-0.21 -2.27,-0.64 -0.68,-0.42 -1.3,-1.07 -1.85,-1.95 -0.56,-0.88 -1.09,-1.98 -1.59,-3.32 -0.26,-0.7 -0.53,-1.26 -0.81,-1.7 -0.28,-0.43 -0.57,-0.74 -0.87,-0.93 -0.31,-0.2 -0.65,-0.29 -1.03,-0.29 -0.28,0 -0.54,0.09 -0.78,0.27 -0.25,0.19 -0.44,0.45 -0.58,0.78 -0.14,0.34 -0.2,0.76 -0.2,1.24 0,0.94 0.24,1.82 0.74,2.65 0.49,0.82 1.21,1.53 2.15,2.13 0.94,0.6 2.06,1.02 3.36,1.24l-1.41 4.72c-1.79,-0.4 -3.38,-1.13 -4.77,-2.18 -1.39,-1.05 -2.48,-2.34 -3.27,-3.88 -0.79,-1.54 -1.18,-3.24 -1.18,-5.12 0,-1.46 0.23,-2.76 0.69,-3.91 0.46,-1.15 1.09,-2.05 1.89,-2.71 0.8,-0.66 1.7,-0.99 2.71,-0.99 1,0 1.9,0.22 2.67,0.66 0.77,0.45 1.47,1.13 2.08,2.06 0.62,0.93 1.2,2.11 1.74,3.54 0.33,0.86 0.63,1.55 0.91,2.04 0.28,0.5 0.54,0.85 0.79,1.06 0.25,0.2 0.5,0.31 0.74,0.31 0.28,0 0.51,-0.09 0.68,-0.28 0.18,-0.18 0.26,-0.45 0.26,-0.82 0,-0.4 -0.1,-0.7 -0.3,-0.92 -0.2,-0.22 -0.44,-0.33 -0.74,-0.33 -0.19,0 -0.38,0.05 -0.57,0.15 -0.19,0.09 -0.42,0.28 -0.69,0.56 -0.27,0.27 -0.62,0.67 -1.06,1.17l-8.15 9.59 -3.57 -3.15z"/>
  <path id="_4" class="fil0" d="M479.78 202.6l18.25 7.97 0 6.05 -18.25 7.97 0 -6.36 15.33 -5.89 0 2.4 -15.33 -5.89 0 -6.25zm3.18 4.74l4.43 1.56 0 8.39 -4.43 1.57 0 -11.52z"/>
  <path id="_5" class="fil0" d="M479.78 229.25l18.25 0 0 8.78c0,1.7 -0.28,3.17 -0.84,4.41 -0.55,1.25 -1.35,2.21 -2.38,2.88 -1.04,0.68 -2.26,1.02 -3.66,1.02 -1.41,0 -2.63,-0.34 -3.65,-1.02 -1.03,-0.67 -1.82,-1.63 -2.39,-2.88 -0.56,-1.24 -0.84,-2.71 -0.84,-4.41l0 -5.37 2.63 2.73 -7.12 0 0 -6.14zm6.44 6.14l2.79 -2.73 0 4.98c0,0.85 0.19,1.48 0.57,1.88 0.38,0.41 0.91,0.62 1.57,0.62 0.66,0 1.18,-0.21 1.56,-0.62 0.38,-0.4 0.57,-1.03 0.57,-1.88l0 -4.98 2.79 2.73 -9.85 0z"/>
  <path id="_6" class="fil0" d="M479.78 252.01l18.25 0 0 8.78c0,1.7 -0.28,3.18 -0.84,4.42 -0.55,1.24 -1.35,2.2 -2.38,2.88 -1.04,0.68 -2.26,1.01 -3.66,1.01 -1.41,0 -2.63,-0.33 -3.65,-1.01 -1.03,-0.68 -1.82,-1.64 -2.39,-2.88 -0.56,-1.24 -0.84,-2.72 -0.84,-4.42l0 -5.37 2.63 2.74 -7.12 0 0 -6.15zm6.44 6.15l2.79 -2.74 0 4.98c0,0.85 0.19,1.48 0.57,1.89 0.38,0.41 0.91,0.61 1.57,0.61 0.66,0 1.18,-0.2 1.56,-0.61 0.38,-0.41 0.57,-1.04 0.57,-1.89l0 -4.98 2.79 2.74 -9.85 0z"/>
  <path id="_7" class="fil0" d="M479.37 289.65c0,-1.52 0.17,-3 0.52,-4.43 0.35,-1.42 0.8,-2.59 1.35,-3.51l4.49 1.98c-0.51,0.87 -0.91,1.83 -1.22,2.9 -0.3,1.07 -0.45,2.11 -0.45,3.12 0,0.59 0.04,1.05 0.12,1.39 0.07,0.34 0.19,0.59 0.33,0.74 0.15,0.16 0.33,0.24 0.54,0.24 0.33,0 0.59,-0.18 0.78,-0.55 0.19,-0.36 0.35,-0.85 0.48,-1.45 0.13,-0.59 0.27,-1.25 0.42,-1.96 0.15,-0.72 0.34,-1.43 0.58,-2.15 0.25,-0.72 0.57,-1.38 0.97,-1.98 0.4,-0.6 0.92,-1.08 1.58,-1.45 0.65,-0.36 1.46,-0.55 2.43,-0.55 1.13,0 2.16,0.32 3.09,0.95 0.93,0.64 1.67,1.58 2.23,2.85 0.55,1.25 0.83,2.82 0.83,4.7 0,1.23 -0.13,2.45 -0.39,3.65 -0.26,1.2 -0.66,2.27 -1.2,3.23l-4.45 -1.85c0.45,-0.91 0.79,-1.78 1.01,-2.62 0.23,-0.84 0.34,-1.66 0.34,-2.46 0,-0.59 -0.05,-1.06 -0.16,-1.41 -0.1,-0.35 -0.24,-0.6 -0.41,-0.74 -0.18,-0.15 -0.37,-0.23 -0.57,-0.23 -0.32,0 -0.56,0.19 -0.75,0.55 -0.18,0.37 -0.33,0.85 -0.45,1.45 -0.13,0.6 -0.26,1.26 -0.39,1.98 -0.14,0.72 -0.33,1.44 -0.58,2.15 -0.24,0.71 -0.56,1.37 -0.96,1.97 -0.4,0.6 -0.92,1.08 -1.57,1.44 -0.64,0.37 -1.44,0.55 -2.39,0.55 -1.11,0 -2.14,-0.32 -3.07,-0.95 -0.92,-0.64 -1.67,-1.58 -2.24,-2.83 -0.56,-1.25 -0.84,-2.82 -0.84,-4.72z"/>
  <polygon id="_8" class="fil0" points="479.78,307.34 493.26,307.34 493.26,302 498.03,302 498.03,318.83 493.26,318.83 493.26,313.49 479.78,313.49 "/>
  <path id="_9" class="fil0" d="M479.37 332.42c0,-2.79 0.75,-4.97 2.26,-6.54 1.52,-1.56 3.64,-2.34 6.36,-2.34l10.04 0 0 6.15 -9.86 0c-1.38,0 -2.37,0.25 -2.95,0.75 -0.59,0.5 -0.88,1.18 -0.88,2.03 0,0.87 0.29,1.56 0.88,2.05 0.58,0.49 1.57,0.74 2.95,0.74l9.86 0 0 6.05 -10.04 0c-2.72,0 -4.84,-0.78 -6.36,-2.35 -1.51,-1.56 -2.26,-3.74 -2.26,-6.54z"/>
  <path id="_10" class="fil0" d="M479.78 347.79l18.25 0 0 8.99c0,2.03 -0.37,3.82 -1.11,5.36 -0.74,1.55 -1.79,2.76 -3.14,3.63 -1.36,0.86 -2.98,1.3 -4.88,1.3 -1.87,0 -3.49,-0.44 -4.86,-1.3 -1.36,-0.87 -2.41,-2.08 -3.15,-3.63 -0.74,-1.54 -1.11,-3.33 -1.11,-5.36l0 -8.99zm4.8 6.14l0 2.59c0,0.86 0.16,1.62 0.49,2.28 0.33,0.65 0.83,1.16 1.48,1.52 0.65,0.36 1.43,0.55 2.35,0.55 0.94,0 1.73,-0.19 2.38,-0.55 0.64,-0.36 1.13,-0.87 1.46,-1.52 0.33,-0.66 0.49,-1.42 0.49,-2.28l0 -2.59 -8.65 0z"/>
  <polygon id="_11" class="fil0" points="479.78,372.97 498.03,372.97 498.03,379.12 479.78,379.12 "/>
  <path id="_12" class="fil0" d="M479.37 395.32c0,-1.48 0.23,-2.84 0.7,-4.1 0.47,-1.26 1.13,-2.35 1.99,-3.27 0.86,-0.92 1.88,-1.64 3.04,-2.15 1.16,-0.51 2.43,-0.77 3.8,-0.77 1.39,0 2.66,0.26 3.81,0.78 1.15,0.52 2.15,1.24 3.02,2.15 0.87,0.91 1.54,2 2.01,3.26 0.47,1.26 0.7,2.62 0.7,4.1 0,1.5 -0.23,2.87 -0.7,4.12 -0.47,1.25 -1.14,2.33 -2.01,3.24 -0.87,0.92 -1.87,1.63 -3.02,2.15 -1.15,0.52 -2.42,0.79 -3.81,0.79 -1.37,0 -2.64,-0.26 -3.8,-0.77 -1.16,-0.52 -2.18,-1.23 -3.04,-2.15 -0.86,-0.92 -1.52,-2.01 -1.99,-3.26 -0.47,-1.25 -0.7,-2.62 -0.7,-4.12zm4.97 -0.02c0,0.59 0.11,1.13 0.32,1.62 0.21,0.5 0.51,0.93 0.9,1.31 0.39,0.37 0.86,0.66 1.43,0.87 0.56,0.21 1.2,0.31 1.91,0.31 0.72,0 1.36,-0.1 1.92,-0.31 0.57,-0.21 1.04,-0.5 1.43,-0.87 0.39,-0.38 0.69,-0.81 0.9,-1.29 0.21,-0.49 0.31,-1.03 0.31,-1.62 0,-0.57 -0.1,-1.11 -0.31,-1.6 -0.21,-0.5 -0.51,-0.93 -0.9,-1.3 -0.39,-0.38 -0.86,-0.67 -1.43,-0.88 -0.56,-0.21 -1.2,-0.31 -1.92,-0.31 -0.71,0 -1.35,0.1 -1.91,0.31 -0.57,0.21 -1.04,0.5 -1.43,0.88 -0.39,0.37 -0.69,0.8 -0.9,1.29 -0.21,0.48 -0.32,1.01 -0.32,1.59z"/>
 </g>
</svg>
