<?xml version="1.0" encoding="UTF-8"?>
<!DOCTYPE svg PUBLIC "-//W3C//DTD SVG 1.1//EN" "http://www.w3.org/Graphics/SVG/1.1/DTD/svg11.dtd">
<!-- Creator: CorelDRAW -->
<svg xmlns="http://www.w3.org/2000/svg" xml:space="preserve" width="500px" height="500px" version="1.1" style="shape-rendering:geometricPrecision; text-rendering:geometricPrecision; image-rendering:optimizeQuality; fill-rule:evenodd; clip-rule:evenodd"
viewBox="0 0 500 500"
 xmlns:xlink="http://www.w3.org/1999/xlink"
 xmlns:xodm="http://www.corel.com/coreldraw/odm/2003">
 <defs>
  <style type="text/css">
   <![CDATA[
    .fil0 {fill:#FDFFF9;fill-rule:nonzero}
   ]]>
  </style>
 </defs>
 <g id="Camada_x0020_1">
  <metadata id="CorelCorpID_0Corel-Layer"/>
  <polygon class="fil0" points="94.04,19.48 88.21,1.24 94.54,1.24 99.26,16.64 96.08,16.64 101.08,1.24 106.73,1.24 111.4,16.64 108.35,16.64 113.28,1.24 119.11,1.24 113.28,19.48 106.68,19.48 102.88,6.87 104.65,6.87 100.64,19.48 "/>
  <path id="_1" class="fil0" d="M124.13 19.48l0 -18.24 14.83 0 0 4.64 -8.78 0 0 8.96 9.12 0 0 4.64 -15.17 0zm5.63 -7.04l0 -4.43 8.13 0 0 4.43 -8.13 0z"/>
  <path id="_2" class="fil0" d="M145.33 19.48l0 -18.24 9.75 0c2.52,0 4.38,0.45 5.58,1.34 1.19,0.9 1.79,2.04 1.79,3.43 0,0.92 -0.25,1.74 -0.77,2.46 -0.51,0.72 -1.25,1.29 -2.22,1.71 -0.98,0.41 -2.18,0.62 -3.6,0.62l0.52 -1.4c1.43,0 2.65,0.2 3.69,0.59 1.03,0.4 1.83,0.98 2.4,1.74 0.56,0.75 0.84,1.66 0.84,2.72 0,1.58 -0.65,2.82 -1.97,3.7 -1.31,0.89 -3.22,1.33 -5.74,1.33l-10.27 0zm6.05 -4.3l3.7 0c0.68,0 1.18,-0.12 1.52,-0.36 0.34,-0.25 0.51,-0.6 0.51,-1.07 0,-0.47 -0.17,-0.83 -0.51,-1.07 -0.34,-0.24 -0.84,-0.37 -1.52,-0.37l-4.12 0 0 -4.06 3.28 0c0.7,0 1.21,-0.12 1.53,-0.35 0.32,-0.24 0.48,-0.57 0.48,-1.01 0,-0.45 -0.16,-0.79 -0.48,-1.01 -0.32,-0.23 -0.83,-0.34 -1.53,-0.34l-2.86 0 0 9.64z"/>
  <path id="_3" class="fil0" d="M191.78 19.82l-11.04 -9.49c-0.59,-0.48 -1.08,-0.97 -1.46,-1.47 -0.38,-0.49 -0.67,-0.99 -0.86,-1.5 -0.19,-0.5 -0.29,-1 -0.29,-1.51 0,-0.97 0.27,-1.83 0.82,-2.57 0.55,-0.73 1.31,-1.31 2.29,-1.73 0.99,-0.41 2.14,-0.62 3.46,-0.62 1.21,0 2.27,0.18 3.18,0.56 0.9,0.37 1.6,0.9 2.11,1.6 0.5,0.69 0.75,1.51 0.75,2.45 0,0.83 -0.21,1.59 -0.64,2.27 -0.42,0.67 -1.07,1.29 -1.95,1.85 -0.88,0.55 -1.99,1.08 -3.32,1.59 -0.7,0.26 -1.26,0.53 -1.7,0.8 -0.43,0.28 -0.74,0.57 -0.93,0.88 -0.2,0.3 -0.29,0.64 -0.29,1.03 0,0.27 0.09,0.53 0.27,0.78 0.19,0.24 0.44,0.43 0.78,0.57 0.34,0.14 0.76,0.21 1.24,0.21 0.94,0 1.82,-0.25 2.65,-0.74 0.82,-0.5 1.53,-1.21 2.13,-2.15 0.6,-0.94 1.02,-2.06 1.24,-3.37l4.72 1.41c-0.4,1.79 -1.13,3.38 -2.18,4.77 -1.05,1.39 -2.34,2.48 -3.88,3.27 -1.54,0.79 -3.24,1.19 -5.12,1.19 -1.46,0 -2.76,-0.23 -3.91,-0.69 -1.15,-0.46 -2.05,-1.09 -2.71,-1.89 -0.66,-0.8 -0.99,-1.71 -0.99,-2.71 0,-1.01 0.22,-1.9 0.66,-2.67 0.45,-0.78 1.13,-1.47 2.06,-2.09 0.93,-0.61 2.11,-1.19 3.53,-1.73 0.87,-0.33 1.55,-0.64 2.05,-0.91 0.49,-0.28 0.85,-0.55 1.05,-0.8 0.21,-0.25 0.32,-0.5 0.32,-0.74 0,-0.28 -0.09,-0.51 -0.28,-0.68 -0.18,-0.17 -0.45,-0.26 -0.82,-0.26 -0.4,0 -0.7,0.1 -0.92,0.3 -0.22,0.2 -0.33,0.45 -0.33,0.74 0,0.19 0.05,0.38 0.15,0.58 0.09,0.19 0.28,0.42 0.56,0.69 0.27,0.27 0.66,0.62 1.17,1.05l9.59 8.16 -3.16 3.57z"/>
  <path id="_4" class="fil0" d="M206.71 19.48l7.97 -18.24 6.05 0 7.97 18.24 -6.36 0 -5.89 -15.32 2.4 0 -5.89 15.32 -6.25 0zm4.74 -3.18l1.56 -4.43 8.39 0 1.57 4.43 -11.52 0z"/>
  <path id="_5" class="fil0" d="M233.35 19.48l0 -18.24 8.79 0c1.7,0 3.17,0.28 4.41,0.83 1.24,0.56 2.21,1.35 2.88,2.39 0.68,1.03 1.02,2.25 1.02,3.66 0,1.41 -0.34,2.62 -1.02,3.65 -0.67,1.02 -1.64,1.82 -2.88,2.38 -1.24,0.57 -2.71,0.85 -4.41,0.85l-5.37 0 2.73 -2.63 0 7.11 -6.15 0zm6.15 -6.44l-2.73 -2.78 4.98 0c0.85,0 1.48,-0.2 1.88,-0.58 0.41,-0.38 0.62,-0.9 0.62,-1.56 0,-0.66 -0.21,-1.18 -0.62,-1.56 -0.4,-0.39 -1.03,-0.58 -1.88,-0.58l-4.98 0 2.73 -2.79 0 9.85z"/>
  <path id="_6" class="fil0" d="M256.12 19.48l0 -18.24 8.78 0c1.7,0 3.18,0.28 4.42,0.83 1.24,0.56 2.2,1.35 2.88,2.39 0.67,1.03 1.01,2.25 1.01,3.66 0,1.41 -0.34,2.62 -1.01,3.65 -0.68,1.02 -1.64,1.82 -2.88,2.38 -1.24,0.57 -2.72,0.85 -4.42,0.85l-5.37 0 2.74 -2.63 0 7.11 -6.15 0zm6.15 -6.44l-2.74 -2.78 4.98 0c0.85,0 1.48,-0.2 1.89,-0.58 0.41,-0.38 0.61,-0.9 0.61,-1.56 0,-0.66 -0.2,-1.18 -0.61,-1.56 -0.41,-0.39 -1.04,-0.58 -1.89,-0.58l-4.98 0 2.74 -2.79 0 9.85z"/>
  <path id="_7" class="fil0" d="M293.76 19.9c-1.52,0 -3,-0.18 -4.43,-0.52 -1.42,-0.35 -2.59,-0.8 -3.51,-1.36l1.98 -4.48c0.86,0.5 1.83,0.91 2.9,1.21 1.07,0.3 2.11,0.46 3.12,0.46 0.59,0 1.05,-0.04 1.39,-0.12 0.34,-0.08 0.59,-0.19 0.74,-0.34 0.16,-0.15 0.24,-0.33 0.24,-0.53 0,-0.33 -0.19,-0.59 -0.55,-0.79 -0.36,-0.19 -0.85,-0.35 -1.45,-0.48 -0.6,-0.13 -1.25,-0.27 -1.96,-0.41 -0.72,-0.15 -1.43,-0.35 -2.15,-0.59 -0.72,-0.24 -1.38,-0.57 -1.98,-0.97 -0.6,-0.39 -1.09,-0.92 -1.45,-1.57 -0.37,-0.65 -0.55,-1.47 -0.55,-2.44 0,-1.13 0.32,-2.16 0.95,-3.09 0.64,-0.93 1.58,-1.67 2.84,-2.22 1.26,-0.56 2.83,-0.84 4.71,-0.84 1.23,0 2.45,0.13 3.65,0.39 1.19,0.26 2.27,0.66 3.23,1.2l-1.85 4.46c-0.91,-0.45 -1.78,-0.79 -2.62,-1.02 -0.84,-0.22 -1.66,-0.34 -2.46,-0.34 -0.6,0 -1.06,0.05 -1.41,0.16 -0.35,0.1 -0.6,0.24 -0.74,0.42 -0.15,0.17 -0.23,0.36 -0.23,0.57 0,0.31 0.19,0.56 0.55,0.74 0.37,0.18 0.85,0.34 1.45,0.46 0.6,0.12 1.26,0.25 1.98,0.39 0.72,0.14 1.44,0.33 2.15,0.57 0.71,0.24 1.37,0.57 1.97,0.97 0.59,0.4 1.08,0.92 1.44,1.56 0.37,0.64 0.55,1.44 0.55,2.4 0,1.11 -0.32,2.13 -0.95,3.06 -0.64,0.93 -1.58,1.68 -2.83,2.24 -1.25,0.56 -2.82,0.85 -4.72,0.85z"/>
  <polygon id="_8" class="fil0" points="311.45,19.48 311.45,6.01 306.1,6.01 306.1,1.24 322.94,1.24 322.94,6.01 317.6,6.01 317.6,19.48 "/>
  <path id="_9" class="fil0" d="M336.53 19.9c-2.8,0 -4.98,-0.76 -6.54,-2.27 -1.56,-1.51 -2.35,-3.63 -2.35,-6.36l0 -10.03 6.15 0 0 9.85c0,1.39 0.26,2.37 0.76,2.96 0.5,0.58 1.18,0.87 2.03,0.87 0.87,0 1.55,-0.29 2.05,-0.87 0.49,-0.59 0.74,-1.57 0.74,-2.96l0 -9.85 6.05 0 0 10.03c0,2.73 -0.79,4.85 -2.35,6.36 -1.56,1.51 -3.74,2.27 -6.54,2.27z"/>
  <path id="_10" class="fil0" d="M351.9 19.48l0 -18.24 8.98 0c2.04,0 3.83,0.37 5.37,1.11 1.55,0.74 2.76,1.78 3.63,3.14 0.86,1.35 1.3,2.98 1.3,4.87 0,1.88 -0.44,3.5 -1.3,4.86 -0.87,1.36 -2.08,2.41 -3.63,3.15 -1.54,0.74 -3.33,1.11 -5.37,1.11l-8.98 0zm6.14 -4.8l2.58 0c0.87,0 1.63,-0.16 2.28,-0.49 0.66,-0.33 1.16,-0.82 1.53,-1.47 0.36,-0.65 0.55,-1.44 0.55,-2.36 0,-0.94 -0.19,-1.73 -0.55,-2.37 -0.37,-0.64 -0.87,-1.13 -1.53,-1.46 -0.65,-0.33 -1.41,-0.5 -2.28,-0.5l-2.58 0 0 8.65z"/>
  <polygon id="_11" class="fil0" points="377.08,19.48 377.08,1.24 383.23,1.24 383.23,19.48 "/>
  <path id="_12" class="fil0" d="M399.43 19.9c-1.48,0 -2.84,-0.24 -4.1,-0.71 -1.26,-0.47 -2.35,-1.13 -3.27,-1.99 -0.92,-0.86 -1.64,-1.87 -2.15,-3.04 -0.52,-1.16 -0.77,-2.43 -0.77,-3.8 0,-1.39 0.26,-2.66 0.78,-3.8 0.52,-1.15 1.24,-2.16 2.15,-3.03 0.91,-0.87 2,-1.54 3.26,-2 1.26,-0.47 2.62,-0.71 4.1,-0.71 1.5,0 2.87,0.24 4.12,0.71 1.25,0.46 2.33,1.13 3.24,2 0.91,0.87 1.63,1.88 2.15,3.03 0.52,1.14 0.78,2.41 0.78,3.8 0,1.37 -0.25,2.64 -0.76,3.8 -0.52,1.17 -1.23,2.18 -2.15,3.04 -0.93,0.86 -2.01,1.52 -3.26,1.99 -1.25,0.47 -2.62,0.71 -4.12,0.71zm-0.02 -4.98c0.59,0 1.13,-0.1 1.62,-0.31 0.5,-0.21 0.93,-0.51 1.31,-0.9 0.37,-0.39 0.66,-0.87 0.87,-1.43 0.21,-0.57 0.31,-1.21 0.31,-1.92 0,-0.71 -0.1,-1.35 -0.31,-1.92 -0.21,-0.56 -0.5,-1.04 -0.87,-1.43 -0.38,-0.39 -0.81,-0.69 -1.29,-0.9 -0.49,-0.21 -1.03,-0.31 -1.62,-0.31 -0.57,0 -1.11,0.1 -1.6,0.31 -0.5,0.21 -0.93,0.51 -1.3,0.9 -0.38,0.39 -0.67,0.87 -0.88,1.43 -0.21,0.57 -0.31,1.21 -0.31,1.92 0,0.71 0.1,1.35 0.31,1.92 0.21,0.56 0.5,1.04 0.88,1.43 0.37,0.39 0.8,0.69 1.29,0.9 0.48,0.21 1.01,0.31 1.59,0.31z"/>
 </g>
</svg>
