<?xml version="1.0" encoding="UTF-8"?>
<!DOCTYPE svg PUBLIC "-//W3C//DTD SVG 1.1//EN" "http://www.w3.org/Graphics/SVG/1.1/DTD/svg11.dtd">
<!-- Creator: CorelDRAW -->
<svg xmlns="http://www.w3.org/2000/svg" xml:space="preserve" width="500px" height="500px" version="1.1" style="shape-rendering:geometricPrecision; text-rendering:geometricPrecision; image-rendering:optimizeQuality; fill-rule:evenodd; clip-rule:evenodd"
viewBox="0 0 500 500"
 xmlns:xlink="http://www.w3.org/1999/xlink"
 xmlns:xodm="http://www.corel.com/coreldraw/odm/2003">
 <defs>
  <style type="text/css">
   <![CDATA[
    .fil0 {fill:#FDFFF9;fill-rule:nonzero}
   ]]>
  </style>
 </defs>
 <g id="Camada_x0020_1">
  <metadata id="CorelCorpID_0Corel-Layer"/>
  <polygon class="fil0" points="403.89,482.16 409.72,500.4 403.39,500.4 398.68,485 401.85,485 396.85,500.4 391.2,500.4 386.53,485 389.58,485 384.66,500.4 378.82,500.4 384.66,482.16 391.25,482.16 395.05,494.77 393.28,494.77 397.29,482.16 "/>
  <path id="_1" class="fil0" d="M373.8 482.16l0 18.24 -14.83 0 0 -4.64 8.79 0 0 -8.96 -9.13 0 0 -4.64 15.17 0zm-5.63 7.04l0 4.43 -8.13 0 0 -4.43 8.13 0z"/>
  <path id="_2" class="fil0" d="M352.6 482.16l0 18.24 -9.75 0c-2.52,0 -4.37,-0.44 -5.57,-1.34 -1.2,-0.89 -1.8,-2.04 -1.8,-3.43 0,-0.92 0.26,-1.74 0.77,-2.46 0.51,-0.72 1.25,-1.29 2.23,-1.71 0.97,-0.41 2.17,-0.62 3.59,-0.62l-0.52 1.41c-1.42,0 -2.65,-0.2 -3.69,-0.6 -1.03,-0.4 -1.83,-0.98 -2.39,-1.74 -0.57,-0.75 -0.85,-1.66 -0.85,-2.72 0,-1.58 0.65,-2.81 1.97,-3.7 1.31,-0.89 3.22,-1.33 5.74,-1.33l10.27 0zm-6.05 4.3l-3.7 0c-0.67,0 -1.18,0.12 -1.52,0.37 -0.34,0.24 -0.51,0.6 -0.51,1.06 0,0.47 0.17,0.83 0.51,1.07 0.34,0.25 0.85,0.37 1.52,0.37l4.12 0 0 4.06 -3.28 0c-0.7,0 -1.21,0.12 -1.53,0.35 -0.32,0.24 -0.48,0.57 -0.48,1.01 0,0.45 0.16,0.79 0.48,1.01 0.32,0.23 0.83,0.34 1.53,0.34l2.86 0 0 -9.64z"/>
  <path id="_3" class="fil0" d="M306.15 481.82l11.05 9.49c0.59,0.48 1.07,0.98 1.46,1.47 0.38,0.5 0.66,1 0.86,1.5 0.19,0.5 0.28,1.01 0.28,1.51 0,0.97 -0.27,1.83 -0.82,2.57 -0.55,0.74 -1.31,1.31 -2.29,1.73 -0.98,0.42 -2.13,0.63 -3.45,0.63 -1.22,0 -2.28,-0.19 -3.18,-0.56 -0.91,-0.38 -1.61,-0.91 -2.11,-1.61 -0.51,-0.69 -0.76,-1.51 -0.76,-2.45 0,-0.83 0.21,-1.59 0.64,-2.26 0.42,-0.68 1.08,-1.3 1.95,-1.85 0.88,-0.56 1.99,-1.09 3.32,-1.59 0.7,-0.26 1.26,-0.53 1.7,-0.81 0.43,-0.28 0.75,-0.57 0.94,-0.87 0.19,-0.31 0.28,-0.65 0.28,-1.03 0,-0.28 -0.09,-0.54 -0.27,-0.79 -0.18,-0.24 -0.44,-0.43 -0.78,-0.57 -0.34,-0.14 -0.75,-0.21 -1.24,-0.21 -0.94,0 -1.82,0.25 -2.64,0.74 -0.83,0.5 -1.54,1.22 -2.14,2.16 -0.6,0.93 -1.01,2.05 -1.24,3.36l-4.72 -1.41c0.4,-1.79 1.13,-3.38 2.18,-4.77 1.05,-1.39 2.35,-2.48 3.88,-3.27 1.54,-0.79 3.25,-1.19 5.12,-1.19 1.46,0 2.77,0.24 3.91,0.7 1.15,0.46 2.05,1.09 2.71,1.88 0.66,0.8 0.99,1.71 0.99,2.71 0,1.01 -0.22,1.9 -0.66,2.68 -0.44,0.77 -1.13,1.46 -2.06,2.08 -0.93,0.62 -2.11,1.19 -3.53,1.73 -0.87,0.33 -1.55,0.64 -2.05,0.92 -0.49,0.27 -0.84,0.54 -1.05,0.79 -0.21,0.25 -0.32,0.5 -0.32,0.74 0,0.28 0.1,0.51 0.28,0.68 0.18,0.17 0.45,0.26 0.82,0.26 0.4,0 0.71,-0.1 0.92,-0.3 0.22,-0.2 0.33,-0.45 0.33,-0.74 0,-0.19 -0.05,-0.38 -0.14,-0.57 -0.1,-0.2 -0.29,-0.43 -0.56,-0.7 -0.28,-0.26 -0.67,-0.62 -1.18,-1.05l-9.59 -8.16 3.16 -3.57z"/>
  <path id="_4" class="fil0" d="M291.23 482.16l-7.98 18.24 -6.04 0 -7.98 -18.24 6.36 0 5.89 15.32 -2.4 0 5.89 -15.32 6.26 0zm-4.75 3.18l-1.56 4.43 -8.39 0 -1.56 -4.43 11.51 0z"/>
  <path id="_5" class="fil0" d="M264.58 482.16l0 18.24 -8.78 0c-1.71,0 -3.18,-0.27 -4.42,-0.83 -1.24,-0.56 -2.2,-1.35 -2.88,-2.39 -0.68,-1.03 -1.02,-2.25 -1.02,-3.66 0,-1.4 0.34,-2.62 1.02,-3.64 0.68,-1.03 1.64,-1.82 2.88,-2.39 1.24,-0.56 2.71,-0.85 4.42,-0.85l5.36 0 -2.73 2.64 0 -7.12 6.15 0zm-6.15 6.44l2.73 2.79 -4.97 0c-0.85,0 -1.48,0.19 -1.89,0.57 -0.41,0.38 -0.61,0.9 -0.61,1.56 0,0.66 0.2,1.19 0.61,1.57 0.41,0.38 1.04,0.57 1.89,0.57l4.97 0 -2.73 2.79 0 -9.85z"/>
  <path id="_6" class="fil0" d="M241.81 482.16l0 18.24 -8.78 0c-1.7,0 -3.17,-0.27 -4.42,-0.83 -1.24,-0.56 -2.2,-1.35 -2.87,-2.39 -0.68,-1.03 -1.02,-2.25 -1.02,-3.66 0,-1.4 0.34,-2.62 1.02,-3.64 0.67,-1.03 1.63,-1.82 2.87,-2.39 1.25,-0.56 2.72,-0.85 4.42,-0.85l5.37 0 -2.74 2.64 0 -7.12 6.15 0zm-6.15 6.44l2.74 2.79 -4.98 0c-0.85,0 -1.48,0.19 -1.89,0.57 -0.41,0.38 -0.61,0.9 -0.61,1.56 0,0.66 0.2,1.19 0.61,1.57 0.41,0.38 1.04,0.57 1.89,0.57l4.98 0 -2.74 2.79 0 -9.85z"/>
  <path id="_7" class="fil0" d="M204.17 481.74c1.53,0 3,0.18 4.43,0.53 1.42,0.34 2.6,0.8 3.52,1.35l-1.98 4.48c-0.87,-0.5 -1.84,-0.9 -2.91,-1.21 -1.07,-0.3 -2.11,-0.46 -3.11,-0.46 -0.59,0 -1.06,0.04 -1.4,0.12 -0.34,0.08 -0.58,0.19 -0.74,0.34 -0.16,0.15 -0.24,0.33 -0.24,0.54 0,0.33 0.19,0.59 0.55,0.78 0.37,0.19 0.85,0.35 1.45,0.48 0.6,0.13 1.25,0.27 1.97,0.42 0.71,0.14 1.42,0.34 2.15,0.58 0.72,0.25 1.38,0.57 1.98,0.97 0.6,0.4 1.08,0.92 1.44,1.57 0.37,0.66 0.55,1.47 0.55,2.44 0,1.13 -0.32,2.16 -0.95,3.09 -0.64,0.93 -1.58,1.67 -2.84,2.23 -1.26,0.55 -2.83,0.83 -4.71,0.83 -1.23,0 -2.45,-0.13 -3.64,-0.39 -1.2,-0.26 -2.28,-0.66 -3.24,-1.2l1.86 -4.46c0.9,0.46 1.77,0.79 2.61,1.02 0.85,0.23 1.67,0.34 2.47,0.34 0.59,0 1.06,-0.05 1.4,-0.16 0.35,-0.1 0.6,-0.24 0.75,-0.41 0.14,-0.18 0.22,-0.37 0.22,-0.58 0,-0.31 -0.18,-0.56 -0.55,-0.74 -0.36,-0.18 -0.85,-0.33 -1.45,-0.46 -0.59,-0.12 -1.25,-0.25 -1.98,-0.39 -0.72,-0.14 -1.43,-0.33 -2.15,-0.57 -0.71,-0.24 -1.36,-0.56 -1.96,-0.96 -0.6,-0.4 -1.08,-0.92 -1.45,-1.57 -0.36,-0.64 -0.55,-1.44 -0.55,-2.4 0,-1.11 0.32,-2.13 0.95,-3.06 0.64,-0.93 1.58,-1.67 2.83,-2.24 1.25,-0.56 2.83,-0.85 4.72,-0.85z"/>
  <polygon id="_8" class="fil0" points="186.48,482.16 186.48,495.63 191.83,495.63 191.83,500.4 174.99,500.4 174.99,495.63 180.33,495.63 180.33,482.16 "/>
  <path id="_9" class="fil0" d="M161.4 481.74c2.8,0 4.98,0.76 6.54,2.27 1.57,1.51 2.35,3.63 2.35,6.36l0 10.03 -6.15 0 0 -9.85c0,-1.39 -0.25,-2.37 -0.76,-2.96 -0.5,-0.58 -1.18,-0.87 -2.03,-0.87 -0.87,0 -1.55,0.29 -2.05,0.87 -0.49,0.59 -0.74,1.57 -0.74,2.96l0 9.85 -6.04 0 0 -10.03c0,-2.73 0.78,-4.85 2.34,-6.36 1.56,-1.51 3.74,-2.27 6.54,-2.27z"/>
  <path id="_10" class="fil0" d="M146.04 482.16l0 18.24 -8.99 0c-2.04,0 -3.82,-0.37 -5.37,-1.11 -1.55,-0.73 -2.76,-1.78 -3.62,-3.13 -0.87,-1.36 -1.31,-2.98 -1.31,-4.88 0,-1.87 0.44,-3.49 1.31,-4.86 0.86,-1.36 2.07,-2.41 3.62,-3.15 1.55,-0.74 3.33,-1.11 5.37,-1.11l8.99 0zm-6.15 4.8l-2.58 0c-0.87,0 -1.63,0.16 -2.28,0.49 -0.65,0.33 -1.16,0.82 -1.53,1.47 -0.36,0.66 -0.54,1.44 -0.54,2.36 0,0.94 0.18,1.73 0.54,2.37 0.37,0.65 0.88,1.13 1.53,1.46 0.65,0.33 1.41,0.5 2.28,0.5l2.58 0 0 -8.65z"/>
  <polygon id="_11" class="fil0" points="120.85,482.16 120.85,500.4 114.7,500.4 114.7,482.16 "/>
  <path id="_12" class="fil0" d="M98.5 481.74c1.48,0 2.85,0.24 4.11,0.71 1.26,0.47 2.35,1.13 3.27,1.99 0.92,0.86 1.63,1.87 2.15,3.04 0.51,1.16 0.76,2.43 0.76,3.8 0,1.39 -0.26,2.66 -0.78,3.81 -0.52,1.14 -1.24,2.15 -2.15,3.02 -0.91,0.87 -1.99,1.54 -3.25,2.01 -1.26,0.47 -2.63,0.7 -4.11,0.7 -1.49,0 -2.87,-0.23 -4.12,-0.7 -1.25,-0.47 -2.33,-1.14 -3.24,-2.01 -0.91,-0.87 -1.63,-1.88 -2.15,-3.02 -0.52,-1.15 -0.78,-2.42 -0.78,-3.81 0,-1.37 0.25,-2.64 0.77,-3.8 0.51,-1.17 1.23,-2.18 2.15,-3.04 0.92,-0.86 2,-1.52 3.25,-1.99 1.25,-0.47 2.63,-0.71 4.12,-0.71zm0.03 4.98c-0.59,0 -1.14,0.11 -1.63,0.31 -0.5,0.21 -0.93,0.51 -1.3,0.9 -0.38,0.39 -0.67,0.87 -0.88,1.44 -0.21,0.56 -0.31,1.2 -0.31,1.91 0,0.71 0.1,1.35 0.31,1.92 0.21,0.56 0.5,1.04 0.88,1.43 0.37,0.39 0.8,0.69 1.28,0.9 0.49,0.21 1.03,0.31 1.62,0.31 0.57,0 1.11,-0.1 1.6,-0.31 0.5,-0.21 0.93,-0.51 1.31,-0.9 0.37,-0.39 0.66,-0.87 0.87,-1.43 0.21,-0.57 0.31,-1.21 0.31,-1.92 0,-0.71 -0.1,-1.35 -0.31,-1.91 -0.21,-0.57 -0.5,-1.05 -0.87,-1.44 -0.38,-0.39 -0.81,-0.69 -1.29,-0.9 -0.49,-0.2 -1.02,-0.31 -1.59,-0.31z"/>
 </g>
</svg>
